<mxfile host="app.diagrams.net" modified="2024-05-09T21:41:13.998Z" agent="Mozilla/5.0 (Windows NT 10.0; Win64; x64) AppleWebKit/537.36 (KHTML, like Gecko) Chrome/124.0.0.0 Safari/537.36" etag="WVSCTzRpUaUvaHXGJ1TJ" version="24.3.1" type="device">
  <diagram name="Page-1" id="YO_-IL9cHbUQNgiEam5a">
    <mxGraphModel dx="2049" dy="1054" grid="1" gridSize="10" guides="1" tooltips="1" connect="1" arrows="1" fold="1" page="1" pageScale="1" pageWidth="827" pageHeight="1169" math="0" shadow="0">
      <root>
        <mxCell id="0" />
        <mxCell id="1" parent="0" />
        <mxCell id="tXvfGp_SNmzIa3DF7fdC-1" value="" style="shape=image;verticalLabelPosition=bottom;labelBackgroundColor=default;verticalAlign=top;aspect=fixed;imageAspect=0;image=https://th.bing.com/th?id=OIP.eTCbdR_AFzbqHMPXhrJWUQHaEK&amp;w=333&amp;h=187&amp;c=8&amp;rs=1&amp;qlt=90&amp;o=6&amp;pid=3.1&amp;rm=2;" vertex="1" parent="1">
          <mxGeometry y="116.04" width="220.74" height="123.96" as="geometry" />
        </mxCell>
        <mxCell id="tXvfGp_SNmzIa3DF7fdC-2" value="" style="shape=image;verticalLabelPosition=bottom;labelBackgroundColor=default;verticalAlign=top;aspect=fixed;imageAspect=0;image=https://th.bing.com/th?id=OIP.7t35UZah3bemFJ4sqZ25LgHaME&amp;w=195&amp;h=319&amp;c=8&amp;rs=1&amp;qlt=90&amp;o=6&amp;pid=3.1&amp;rm=2;" vertex="1" parent="1">
          <mxGeometry x="320" y="80" width="122.26" height="200" as="geometry" />
        </mxCell>
        <mxCell id="tXvfGp_SNmzIa3DF7fdC-3" value="" style="shape=image;verticalLabelPosition=bottom;labelBackgroundColor=default;verticalAlign=top;aspect=fixed;imageAspect=0;image=data:image/jpeg,/9j/4AAQSkZJRgABAQAAAQABAAD/2wBDAAsJCQcJCQcJCQkJCwkJCQkJCQsJCwsMCwsLDA0QDBEODQ4MEhkSJRodJR0ZHxwpKRYlNzU2GioyPi0pMBk7IRP/2wBDAQcICAsJCxULCxUsHRkdLCwsLCwsLCwsLCwsLCwsLCwsLCwsLCwsLCwsLCwsLCwsLCwsLCwsLCwsLCwsLCwsLCz/wAARCAC0AOADASIAAhEBAxEB/8QAGwABAAMAAwEAAAAAAAAAAAAAAAQFBgIDBwH/xABHEAACAgIBAgMEBAkICAcAAAABAgADBBEFEiEGEzEUIkFRMlRhcRUWgZGSk6Gx0SM2QlJT0uHwJDM0c4Kys8E1VXR1osPx/8QAGwEBAAMBAQEBAAAAAAAAAAAAAAQFBgMHAgH/xAAzEQACAgECAwUECwEBAAAAAAAAAQIDBBEhBRIxE0FRcZEiYYGhBhUjMjNSU7HB0eEU8P/aAAwDAQACEQMRAD8A8iiIgCIiAIiIAiIgCIiAIiIAiIgCIiAIiIAiIgCIiAIiIAiIgCIiAIiIAiIgCIiAIiIAiIgCIndj4+Rkv5VFZdyCekEA6BA+Jg/UtdkdMTR4/hXOtRXutWgkbKOnUR+i0t18L8R0gOLSddyrsNn8pMhzzqIPRy18izp4Tl2rVQ0Xv2MLE3n4scJsnov7jsPNOh93bf7Z12+FuMZHFJdLCpCs7O4U67HQInNcRoff8jvLgeZFa6J/Ew8S/wAvwxyVChqCMnvpvLCp0j5+82/2SjsrsqZkdSGX1H/5JkLYWLWD1Kq6i2h8tkWjhEROhxEREAREQBERAEREAREQBERAEREAREQBES34XirOQvBdSMdO9jEHTAhh7mwVJB1Pmc1CLlLojpVVK2ahBatnLi+Dys5ld/5Ogd2Zgd9j9HpOj3++bbFw8TDrFePX0gfEklj+UzuRErVUQaVRoATlMxlZk73p0j4G/wCH8LrxIpvefj/QnF3WtHc691SdHsCfgDOGRcmPU1zlRWnewsdaX46PpuQOduZOHzLan0W9m6HU/BrFOwR8xOFVTnKKfRvQm5GQq4WNP2orX5PQ7OIzPbsQXsR5rt1WqG6uknsB6/ZLCYzwtl+XlW4vT2yAXLfIovb4/b8ppsrMoqysLEexVex67ekso6tsUUaJ3/n7JLysZq9xiuu5W8Pz4vEU7Huno/Nv/SbIedxuFnqBfWC6huhtsNE/EgEbkyJAhOVb5oPRlvbTC6PJYtUec8lxWVx1hVwWrPeuxe4Zd62ddhK6eo5WLTmUWY9w91wdHQJRiCA438RPPOT4+3jsh6X7psmtu52pJC7OgN/GaXDy1etJfeRg+KcNeHLmhvB/L3EGIiTymEREAREQBERAEREAREQBERAEREA51Vva6VoCzudKB6kz0jjcOvBxKqUBBI8x+o7PW3cj8npMb4cxUyeRQtv/AEcC8AfEqRN9KPilz2qXmzW/R7GXtZD8l/IiI9e0pDXGe8U5bVYtOPWw3czecCCT0Ee7r8xkXmuQpPD4dCbb2oEdSnsvkOnZpW+Jbkt5Owo2wtSVnW+zIWXUpiWIAJJA9Nn0mox8aKqhr1W557nZ0pZF3L0l7PwT/nT5kjButoy8Z6zpvNrX8hcdpeeIchU5nDu0SMdKiQOxPRazdiZna3Ndldg9UdXH/Cdzsyr3ysjIyHGmusewje9dR3rclOtOan7mivjc40upd7T9Nf7PSsXITKx6b1176KWG/osQCQZ3TLeFMtmGThleyL5/UTvZLBda1/3mpmXyqextcT0Lh2S8rHjY+vf5oSo57BXMwrHCk246tYnSB1NoEAb/ACy3jsezDansw+YPrOVNrqmpruJGTRHIqlVLvPKWBUkEaIOiPkRPkncpiviZuRU52SzW71rs7E/OQZsU1Jao8unFwk4vqhERP0+RERAEREAREQBERAEREAREQDVeE6B15WTs7KNTrXbXUjb3NbMt4Sur6cmjZ8wBrSO30SyLuamZjiOvbv4HoHA9P+OPm/3E+r9JfvH75wclUsYAsVVmCj1bpG9D75T1+JONa9qLa76HQkM13lhQQdaPvbkWuiyxNwWuhY3ZdNDStlpqYzPDLmZu1Zd5N7AMCDou2j3kWX/iM8bdbXlYuVXa9mkdK2U9AUE7IA+JPzlBNbVLmgnpoea5MOztlFPX3oRECdDgabwkre1Zjabp8he+vdJD61ubGZzhMnh8DCXrzKfNsPWyl16lBA9071JNXiLByMhMXHpvaxyQjP0dBIG/6LbmezKbb7nKMdkbfheTRi40YWTXM99Or36dC6iIlSaMwnigActaB/YYx+PxQGUcvPFP/i1v/p8X/piUc1+N+DDXwR5lnpLKs08WIiJIIQiIgCIiAIiIAiIgCIiAIiIBf+FrUrz7AzaNtXlKD/SLMDr9k3E8uxbzjZFGQF6jU4sC71sj07z0zHuXIopuXXvopYA76W13G/slDxSpqSsRsvo9kJ1ypfVb+p2zK8/wuRZauThVF+vtZXWvvBiWYuT6a9JqpHzMhsXGvyAoc1I79JJAIVS2tj7pBxLZ12Lk7y44jj030Pttkt9e9GAPDc19Rv8AzD+MfgbmvqN/6P8AjLv8cLfqFf65v7s+fjhb9QT9c392XvaZX5F6mP7Dh36r9Cl/A/NfUb/0Y/A/NfUb/wBH/GXX44W/UK/1zf3Y/HC36gn65v7sdpl/kXqOw4d+q/QpfwNzX1HI/R/xmo4HhjhD2m9R55+gGX3kI6gWG/sOpB/HC36hX+ub+7NVU5srrc6BdQxA9O8h5l+Qq9JxST95Z8MxMKd3NVNycd91oc59A2QPnoT5InI5Qw8LJvBHWK38oEju4G5TQg5yUV3mptsjVB2S6LcxHPZFWVyN9lZ2oC1k9/VCVPqJVTna5sssc+ruzn72O5wmyjHkioruPLbZuybm+reoiIn0cxERAEREAREQBERAEREAREQBNP4c5ZKCuBd7tbljW3wDHqYlyTrXwmYnJWZGDKSCO4IOiPzTlbVG2DhIkY2RPGsVsOqPVZ13U15FbVWDdb7Djt7wIIIO5neH8Q0steNmMVf0Wxvog77D1JP+fyabt2I9D3BHcH7plrabMae/wZ6HjZVOfVqt9eq/sqX4Pga0eyympK0G2dz0qo3rZJMj+w+EP7bA/Xp/GXd1VV9VtFo3XanS4IB7bB9DPPeQ4rNwXsL1k1731oD5YBI1piPt1LDEnPI1UrGmUvE66sLSUKIuL7/Bmn9h8If22D+uT+M+jA8IkgLbhFj2AFqkk/IAGYYDfYep7CXvC8PlZF9GRYprpqeuwFgfe0Qw120Qfvk2dEq4uUrXoVNWXC6arrx4tvzNKOB4QgEYyEEbH3GWSKqKqLvSjQ3OWgNAdgOwH2CfHZa0axz0ov0mPoJn53WW7SbZtKsWjG1nCKj4glVVmZgqIpZ2Y6CqBskzC+IOVGdd5NLE49LaUdtF1LL1AgkHe/X+Ekc7zzZBbEw3K44P8pYjEG099EMp+jo9xqZuXmDhur7Szr+xlOMcUV/2FL9nvfj/AIIiJambEREAREQBERAEREAREQBERAEREAREQACQdg6I+UuOO5/OwiqMfMpHqh1snt3JMp4nzOEZrSS1R0qtnVLnrejN7jeJeItQNfZ7O/xQiyz5d9qktQ2LkIO9VtbaOnAKn8jieWz71N/WP5zK2fDK29YNovquP3xWlkVL5Hp3sfGnWsfE+wBKtfmi7L4/DrBuurqrQaAVWIA+SqgnmPU3zP546m+Z/PPn6tT+/Ns+/r7k/CqSf/vI3GV4o42jo9nVsnZ97RavpGvky/8AeZbO5fkc9lNtrAL1dIr9wabXYhe3wlfEmU4tVO8VuVWVxHIytrJbeC2QiIkorxERAEREAREQBERAEREAREQBLpfDmd5FGRblcZj13qWq9qy0pLAHXYONylmx5vDzczjvD64tFlzV02FxWuyoY9t/mMAoszg87DxRmNZi3YpbpW7Ft82snq6dBlHT+2Vc1lWJmcf4d5NuSW7oyLcIYmPYWDVmuy3qcK/ugdx6fP7O3WOE4Wni8Dk8y3KCZGOWZKrKlZr9sQiFkIAIHxB/gBl4lzh8fg8pyePj4CZaYhFZv9psra1Rs9bdVaBdf8M72xvByZnspt5LpBIfJN2P5K6BJ2nldX2a6oBn4miq4Gg88/F3NauOFcpYhHU2qw4ZSy613+UkJwvh63Ot4uqzO9tWtwrvbT7P54IRa2Xy+vuT/W/gAMrE1GPxXhe3Pq4w35xyWZKTattIpN5PQUCeX1+oP9L8nwkHieGXOyswZDmnFwttk7PTb0sHVAhIK72AO+vWAUs78fGuyRkmsDWNj2ZNu99q0IB9B9ol3hYPhvkrLMbEXk0yPKuer2m/HZGZELAHy6wf2/xE/ieP43HwfEF165nm42NfhZqo9Q2qtU7+V1L2PbtuAZrjML8I8hg4XV0+03LV1b1rfx3o/ukV16HdP6rMv5jqX3CHjz4l4Q8emStAyadDKet7S4B33rAXXy7Q2P4UXJ8i+/OsdmY2ZOPbSMZSdt7qPWXOvT1G9fDfYDPxLx+DDc9lcTS4WvHsbqe1j/qqwrO3UF+Wz9Gd6YfhKzP9hRuU2bxQtzXYprYlugEKtfV/8v8AEDORNBXwKLZzteSbVbBxUyaAhGmD3CsBtr3Gj8NSBxGDTyHJY+HcziuzztmsgN7lbONFgR8PlAK6JosbhuNZeZvyWyTRx9orC0PWtjbQuPesUr8Dv93eV+YnAnErtwDlrecg1vVl21OwqCb618pFHc9vyfb2ArYiIAiIgCIiAIiIAm45TlOQ4zjeBbDsVfOqsFgZFcHpPbQbt/n7Jh5KyeQz8uvHpyb2srxwRSpVB0AgA66QD8IAzM/NzrXtybWdn6eoD3V90AD3R2mj5f8Amv4e/wB3T/zXTJSVbyHIX41GHbezY1HSKayqAJ071ogb+J+MAuPCWVj43JFbnCnJrFFZIOutmBGyB2HzMhWcRy1vIX4y4r+e9juE2mwGJYb97X7ZVqzKQynRHoZa/jH4i6BX7fZ5YUJ09FWukDWvowDVHLqv8V49FajeJTdUzqQRYTSh6hoenylXh/zxyNf+Yf8A3JMzj5OTi2i7Hsau0BgHXWwGGjrYnNc7OTJbMW5hks/mG0BQ3Xve/TX7IBa8d/OvG/8AeW/6zS54w2HM8T00WLXfcuJ5JNa2AsjtYy9LdiSAQPtmOTKyq8kZaWFckWm4WADYsJJ6gNa/ZByck3e0Gw+dvfXob36emtQDSVWeNVd/JxaFesHravHwEKADqO2UD987uMvtv4rxct5BzLly7rFUAbP8l1EBe0o7ef5++t6rc6xq3GmUrUARrXwWRMPOzuPtN+HcabSvR1qFJ6dhte8D8hALbgMTKxfEPh9cis1mzJosQEqepHBKn3SfWUrf7Q3++P8AzyQ/KcpZmVZ75LnMq6fLu0gZenYGtDXbfykPqbq6t+9vq39u97gG1Z0r8a811OKy4yqUZhsLZbSK1JB+GzsyNafGCZdlVONQ7LY3lMMTBV2HV0q42Njfr6zL3ZOTkXvlXWM97uLHsbWyw+PbtJ6eIOfStalzrBWqBAvRVoKPh3WAX/GtyubkeIqs/p9uu46iga8vv0WhgP5M9JOgfjIHhzAzk5ajINJFFJvWyzqTSl6rFUeu9n7pQ05WVRkLlVWFMhXNiuApIY72dEa+Pyk9/EXiGzXXn2toEAlayRv10encAsRkc7jZHNW4KK+Il5bMLJQ66Cb0wt32IHy+E+c01eZxGDyLYa4tz5Yx1CFei6nyTZ5iqgAHc69P3Sox+W5bEa18fKet7T1WFVTbHWviJwzOS5LP6fbMhrunXT1BARrevogfMwCJERAEREAREQBERAEREAREQBERAEREAREQBERAEREAREQBERAEREAREQBERAEREAREQBERAEREAREQBERAEREAREQBERAEREAREQBERAEREAREQD//2Q==;" vertex="1" parent="1">
          <mxGeometry x="745.41" y="720" width="161.78" height="130" as="geometry" />
        </mxCell>
        <mxCell id="tXvfGp_SNmzIa3DF7fdC-4" value="" style="shape=image;verticalLabelPosition=bottom;labelBackgroundColor=default;verticalAlign=top;aspect=fixed;imageAspect=0;image=data:image/jpeg,/9j/4AAQSkZJRgABAQAAAQABAAD/2wBDAAsJCQcJCQcJCQkJCwkJCQkJCQsJCwsMCwsLDA0QDBEODQ4MEhkSJRodJR0ZHxwpKRYlNzU2GioyPi0pMBk7IRP/2wBDAQcICAsJCxULCxUsHRkdLCwsLCwsLCwsLCwsLCwsLCwsLCwsLCwsLCwsLCwsLCwsLCwsLCwsLCwsLCwsLCwsLCz/wAARCABUAT0DASIAAhEBAxEB/8QAGwABAAMBAQEBAAAAAAAAAAAAAAUGBwQBAwL/xABOEAACAQMBBQUCCAgMAwkAAAABAgMABAURBhITITFBUWFxgRQiIzI1UpGhsbMVFjZCYnJzdAckNFN1hJKTsrTB0UWi8DNVY4LC0tPh8f/EABsBAQADAQADAAAAAAAAAAAAAAAEBQYDAQIH/8QALREBAAICAQIDBgYDAAAAAAAAAAECAwQRBSETMYESFCIyQVEjQmFxkbHB0fD/2gAMAwEAAhEDEQA/ANRvruCxtZ7qb4kKg7o6uxOioPEnlWdz5TIT3wyBl3LhGBi3AN2NRrpGAezr16/Z9snm7/JgRyiOOBXDrFGPzgCAWZuZPOoys1ubni2iMc9obnpfTPd6TOaObT/X29fq0nEZNMnaLNuhJUPDuEHRZBz90nsPUf8A1Uhy161ltteXtoWa1uJYSxBbhtoG06bwPI/RUn+M+d4Ji4sW+ekwiXigd3zP+WpmLqVIpEZPNV7HQcviTOGY4/poFe1Q8Ll8m+Vso7i7nmjuGeBklfVQWUsGC9NeX11fKsNfYrsV9qsKfd0r6d4peeeY5KUpUlCKUpQKUpQKUpQKUpQKUpQKUpQKUpQKUpQKUpQKUpQKUpQKUpQKUpQKUpQKUpQKUpQZ/i9nL3IKk85a2tW0KEr8PKp7UVug7ifoqzwbN4GEDW0EzfOuWaQn0J3fqqY5V8Li7s7ROLdTxxIehkbmx7lHU+gqFi1MOGvMx6ytNjqW1s34rPEfaP8Au7lbCYJhunHWoHesYU/SuhqLvNkrCRWaykkt5OxXJkhPmG94ehrqO1GDBID3DadqwNofLXQ112mZxV6wSC4XinpHIDHIfIN19K9bRq5vh7PMW39f4/iiPVRHhyOEvreSaFRLA/FiLe9FKByO63r5itBsL6DIWsN1D8WQe8p+Mjg6MjeIr28s7a/gkt7hN5GHI/nI3YynvFVnBi4xOXucVO2sdyC0R6BnUaq6/rDUHyrjjpOpkiI+S0/xKVnzV6lhm9u2SkfzC4UrwVxZXI2+Ksbi9n5iMARxggNLK3JUGvf2+Gp7KtVA/GUzGOw8PFu5PfcHgwx6NNKR2Ivd3k8qol9ttnLhmFoIrKLnpuKss2n6TyDd18lqDmlymayAJDXN/ePuRovIADnurryVFHX/AHPO94nYnF2yJLk9L65IBZG3haRnuSPt8218hQUk7RZ4tqcxd72uugnAH9kcvqqTsts9oLZk47xXkXIFZ0Cvp27ssQB18wa0UYzEhOGMfYhNNN0W8O7p5btQmT2Owl4rvaoLG45kNbj4Fj3PD8XTy0oO/D5/G5lDwGMdyigy202gkX9JdORXxH1VL1QNn9k8jBlTc5D4OLHSBrcwyHS7mI1DKRo3DA6g9Ty6Dnf6B6U9KUoHpT0pSgelPSlKB6U9KUoFRmSzmHxWi3lwBKw3lgiUyTEd+4vQeelfbK3wx2Ov73QMbeFmQHoZCQqA+pGtZJb2+SzORWGNuNe3jvJJJMSFAHN5JCOwdw8B5Bffx7wH8xkv7mH/AOWpzFZS3y9r7ZbxXCQGWSKP2hFRn4fJmUKTy11HXsqpL/B8So3swwcjnuWi7oP6O9JrVzsLKDH2dnZQD4K2hSFT2tujmx8SdSfOg6fSnpSlA9KelKUD0p6UpQPSnpSlA9KelKUD0p6UpQPSnpSlBx397HYWs1y43ioCxp8+RuSr/v5VRViymbu3I+GnIBd3O7FAh6DwHcAOdWLaktwsenPdMkzsPFVAH2mu/BWqW2OtiAN+4UXErdrM/Mc/AaAVSZ4tt7PgTPFaxEyvtXLXR1feKxze08R+iD/FK73NTewb/dwX3dfPe1+qoi9xd9j3AuI9FJPDlQ70bEdzdQfAgVo/Z2V8bm2hureW3mUFJFIPep7GHiOorpm6Xjmn4faXrg61nrb8XvH7K5gc1KWjsL1yxb3baZzqxPZHIfsPpXfm4AHxWQUASWd9bI7d8MsioQfIn6zVRlhlglliJIlhkZdR+a6NyI+2r9ZTi8srSdgCZYo3YdQHHX66j6Oe2xS2vk848vR16hirrZK7OLynz9f9w6u01n23d6z3djj1PwdvD7TIB0MspKrqPAA/2q0Ksp2vLfjBktexLQL5cBD/AL1fs8sewuLjjtJstIoM14zw25P5ltG26d39ZgSfIVc6iNmgq4HBBdNPYYDy7yNTUvQKVld9tTtBFfZGKPKFY4ry6ijUJb+6iSsoHNNelc342bSf96t/Ytv/AGUGu0rIxtXtKToMq5PcEtj/AOipbZ3P5+9zeNtbm+klgk9oMkZSEBgsLMNSqA8jp20Fj2sy2RxNrYy2UkaPNctG5kjEgKiNmAANVyPbnJx2SI0MM1+0kpeaRdyBI9fcVY4zqT36kevZKbffyHF/vr/dNVY2cwYzd5KkzullaoslyYiBJIzkhIlbs10JJ68uXXUB9ztptMNSZ7ZRzJ/iyaAepq/YObJzYqzusm6G5nQ3L6IsSxRP7yKQOXIaE+dfFNl9llQIMTZkDQfCIXY+bOSfrqC22yzxJBh7dt0Sxia8KHQ8LUqkPLsOhJ8h30H1ym3FtAzw4uFbplOhuJSy2+o+Yq+8w8dQPOoE7a7Slt4SWir8wWwK+Wpbe+uufZ7Z24zkksju8GPhfclmRRxJZBoTHFvchp+cdDprp1+Ld02O2VSPcNiztpoZJLi4MpPfvBx9lBD4zbpXkSLK26RK5C+02u8UXXlrJGdTp3kE+VfNts8qcp7HFHj3tnyS2kcqrKxaFpxGHDB90kjn0rj2h2TOMie+sXkks0040cp3pYAeW8GA5r36jUePZXbD5QxP9IWPd/PpQabtd+T2V/qv+YjrO8NlpsNdyXcUMczvA9vuysyhVZ1ckFeevKtF2u/J7K/1X/MR1R9lMdj8pk57e+h4sK2UswXiSJo6yxqDrGwPae2gkX2/ySqzDHWh0UkfCy9g17qv4mQQLPKyRoIhNIzsFRF3d4lmPLQVCnY/ZNgQcedCNCPabvp/eVXdtcq/Eiwtu27BCkUl2AfjuRrHGfADQnxI7qDqye3UUbtFirdZgpINxc76xnTl7kS6MR4kjy7TDfjptNvbxktNNddz2Ybvlrvb311+dndmJs0Gu7iSSDHo7RqY9BNcsp0YRltQFHQnTr06a1chsdspw9z2A66acQ3FzxfPe36CLxO3EE8iQZSBbdnIVbiAkwak6DiK3vAeOpHlXPjtsMxeZWwsXhsRDcXhgZo0l39z3jqpLkdndUXtDsvJh1F3bSPNYlgj8TTi27MdFDkdVPQHT7ecdgPl3A/vyf4HoNRzN7NjsXkL6FUaW3jVkWUEoSXVfeAIPb31ULTbu5Au3vraBiqR+yRWium/IWO8ZHdmAAGnZVl2p/J/M/sU+9SstsrO4yF5a2NtoJrmTcVm+LGoBZpG056AAn/9oJ+bbbaKRiYvY4F7FSEv9LSN/oK78dt3OromVt4zEdAZ7QMHT9JoiTqO/Qg+BqbtNjdmoIVSa1N1LoN+a5kk32bTmQqEKPQVV9p9mosSsd7ZGQ2byiOSJ2LGB2BKlXPMqenPodOfPkGjwzQ3EUU8MiSRSorxuh1VlbmCDX7JCgkkAAEknkABzJJqjbB5CQm/xbkmONVvLYH80M25Io8NdD6nvr6bb5eSJIcTAxU3EfHvGU8+DqQsWv6RBLeAA6NQfTK7cWtu7w4yFbplOjTyllt9R13AvvMPHUDzqBO2m0xbeEloF+YLYbv0ltfrrm2f2euc7LIxkaCxgYJPOoBd5NNeFDry1A+MezXoSeV4j2O2VSMIbFpG00MstxcGUnv3g4H0AUEPjNug0iRZW3SNWIX2i13t1ezWSNtTp36E+XdyXu22Yju7yK3XHtBFcTJDIEkbiRKxCsW39OY8K+e0OyX4Ohkvse8klrHznhl96SFPno46qO3XmOuvdU6DYM1YteWvwY1mgbiIB1YEaMo8+zyrlwuRh9nSzuHEcsPwcZkO6HUdBqfzh008Kl7e5guo+JC4ZehHRlPcwr4XOLx12xeWEb5HN4yUY+ZWqvJhvbJGzrTEzMd4+kx+6dTLWMc6+eJ4ie33h0Ge2Vo0M0QeQ7sa76bznroo11r6/ZXDa4rG2j8SKH4QfFeQl2X9Ut0r5ZXIJawvFGwNzIpVQOsankXb/SpFs84cU5NjiOP1cIxRkyRTFzKq3xWW9vZF5q9xKVPeN4jWrRgpIzjraJWBeEMkgHVWLFgDVXK1JYRpUvlEasySKyT7vNVAG8pY/Z51kum7k12+Zj5v8tLv4YtrezE/KtlZvtzaNFk7a7AO5d2oUt2cWA7pH0Fa0iojaDErmMdLbrui4jPHtGbQaTKCN0nuYEg+fhW5ZNGbE36XGKFkSONjpGjK9pgkJeNh4dV9PGrVWNWF9kcLf8eJWjuIHeC4glBAcajfikH0Eeh89MxW0eHyqII5khuSBv21wyrIG7QhPJh5fQKCUNvakkmGEknUkxoSSfSns1r/ADEP92n+1fWobK7SYbFI4kmWa5AO5bW7BpC3c5HJR5/QaCL20ubS1xi2kaRLPfyKvuooZYYmEjtqB37o9agthrRpsvcXeh4djaMoPZxbghQPoDH18ag8hfZDM33HkVpbm4ZYLaCIHkNfchiB7Of2mtO2ew64bHRW7ENdSt7ReOvRpmAG6p7lGijy8aCF2+/kOM/fH+6aub+D7/j/AJ2P+GSunb7+Q4z99f7pq5v4Pv8Aj/61j/hkoL3WTbVs7bQZXe191rdV17FECaaVrNZ1txj3hvoMioPBu0SGRgPizxAga+a6afqmgtmy8UUWAwoj00e1SViPzpJCXYn1JqZqhbI7RWttCMVfypEqOxs5pDpHo7bxidjyGhPuk9/hzvgIYAroQRqCOYI8CKD8TRRTQzwyjWKWOSOQE8ijqVNYxj/lDE6dmRsgPLjpWgbT7SWlra3FhZyrLfTo0MhiIZbZGG6xZhy3uwDXx7Oef4/5QxP9IWP36UGnbXfk9lf6r/mI6qOwvy1df0bP99DVu2u/J7K/1X/MR1Udhflq6/o2f76Gg0usc2heRsxnWOpcXlwo17k91fqArY6zDbPHvaZVrsL8BkFEikdBMihZF8+Qb18KDQMNFDBicRFEAI1sbXd07d6MMT6kk131Stk9o7X2WDFX0ixTQDh2kspAjliHxYyx5Bl6DXryq6A8gezTXXs+mg48rFDNjMrFKAY2srne17NIyQfTrWVbP/LmA/fY+75jVbtq9pLQW1xi7GVJZ5xw7qSIhkhiPxkDDkWPQ9wJ7aqWA+XcD+/J/geg0fan8n8z+xT71Komx/5RWP7vffd1e9qfyfzP7FPvUqibHflDZfu9793QarVe2x+QL79raffpVhqvbY/IF7+1tPv0oKnsP8ty934Nudf72KuXa5mO0GT1J0X2VV17FEEZ5fSa6thvluX+jrn72GunbnHvFfW+SVTwbqNYJW05LPEPd1816fqmgs+ycUUWz+H4YHwkLTSEct6WR2Zifs9Knaz/AGQ2itrSP8FX0gji4jPZzvyReIdWikPZz1Knpz05dt+Vg6hlIZWGqspBBHeCOVB5JHHKkkUihkkRo3U9CrDdINYe3us6r7yhmCnvAJANaXtNtJaWNtcWdpMkt/OjRfBMGFsrDdLuw5b3zR69OuZ6d3LyoL/G00LB4ndGHLVCQdO46VIR5jIoNG4Uni6aH/lI+yvUxV88e/uop7EdtG07z2V8zjsgORt2/wDKVI+o182xxv61YnHFoj1ai99bNPFuJfqXL5GQEKUiB6mJef0sTUc2p3mYksTqzMdST3kmvsUIJBGhBIII5giurHwcW7hBUFUDSMCNRoBoNfWo/jZ9zLXHktMzM8d/o6R4evSbUjiHRi8WGHtN1GCGXSKKQdh/PYH6qm44o4lCxxoi9dEUKPoFfuva+h6mli1aRSkd4+v1ZrPnvnt7VpOdKUqc4K/ndmbLM/DqfZ75V3ROq6rKB0WZOWo7j1H1VQb7ZzaCwLCaxlljB1EtoDPGR36KN8eqitepQYhpff8AZ8O++bucK5+jd0qQsdnNob8qIbCSGM6azXgNvEAe3Rhvn0WtfpQV7A7L2WF0uHf2nIMpVrh13ViU9UgTnoO86knv7BYaUoKptrZ395Z41LO1nuHS6dnWBN8qvCYamvhsPY5Gy/DXtlncW3FNnw+PHub+6smu75airlSgc65r2ytMhbTWl1GJIZgAw6EEcwysOYIPMGumlBluU2RzVg7tbRtfWupKPCAZ1Xuki6+qg+QqD3L9NYeFfqNdDEIbkanu3AK26nOgybGbLZ7IugNu9lakjfuLtNxt09eHCTvk92oA8e/8ri762zUMMVnftb2+XgRJmtpiGijuF+ELqu70561rdKCC2tBOz+UADMSbbQKpZj/GIzyC86qewqSDM3RaOVR+Dphq8cijUzRctWAFaTSgVx5HHWeUtJbS6QmN9GUryeOQfFdD2Ef9da7KUGU5PZXO493McDXltqdya1TecL/4kI1YemoqG3b/AE4HCv8ATpwuDc6a925u/wClbfSgyvE7J5vIyRtPC1jZagvJcLuzMmupEUJ97XxYD1r54awyEWfxJNjfLDFkWHEktpggRRIoZnKgVq+le0ETtHDcXGDysNvFJNNJEgjjiG87niIdFFUzZXF5m2ztnPc468ghWC7VpJoiqAtHoAT41pNKBUFtXBdXOEu4baCWeZpbUrHCu85AmViQPCp2lBnux2Ny9pmJJbuwu7eI2E6CSePdQuZIiF17+Rq9Xlna39vNaXUYkgmXddTyPLmGUjmCOoNdFKDLsrshmbB3e1je+tNfdeEA3Cr3SRdT5jXyFQRS/j3ouDfJryMfCuV1PTmgH+lbdSgyXGbL57JPH/Fns7Ukb9xdqUIXtMcJ98nu5AeNfC6xGQivL+CCxv5YYLmWKKU28nwiKxAbUKAdevKthpp/1qaBoKaClK8QI7I2tuY3n3dJF05qdNfOmKijWF5APfdypJ7l6AUpWWilY6zHEflmfVYe1M6vqkdKUpWqV72vKUoFKUoFKUoFe0pQK8pSgV7SlB5SlKBSlKBSlKD2lKUHle0pQeUpSgUpSg9pSlB5SlKD2vKUoFe0pQf/2Q==;" vertex="1" parent="1">
          <mxGeometry x="1004.71" y="755" width="226.43" height="60" as="geometry" />
        </mxCell>
        <mxCell id="tXvfGp_SNmzIa3DF7fdC-5" value="" style="shape=image;verticalLabelPosition=bottom;labelBackgroundColor=default;verticalAlign=top;aspect=fixed;imageAspect=0;image=data:image/jpeg,/9j/4AAQSkZJRgABAQAAAQABAAD/2wBDAAsJCQcJCQcJCQkJCwkJCQkJCQsJCwsMCwsLDA0QDBEODQ4MEhkSJRodJR0ZHxwpKRYlNzU2GioyPi0pMBk7IRP/2wBDAQcICAsJCxULCxUsHRkdLCwsLCwsLCwsLCwsLCwsLCwsLCwsLCwsLCwsLCwsLCwsLCwsLCwsLCwsLCwsLCwsLCz/wAARCACWAH8DASIAAhEBAxEB/8QAGwABAAIDAQEAAAAAAAAAAAAAAAQFAwYHAQL/xABEEAABAwMCAwUDBwgJBQAAAAABAgMEAAUREiEGEzFBUWFxgRQikSMyNnJzdLMHFTM1QlKCsTRDU2J1k6HB8CRjkqK0/8QAGwEAAQUBAQAAAAAAAAAAAAAAAAIDBAUGAQf/xAAzEQABAwIDBAcIAwEAAAAAAAABAAIDBBEFIUESIjGBBhNRYZHB0RQjcaGx4fDxFTIzQv/aAAwDAQACEQMRAD8A63Sm1NqEJSm1NqEJSlQplyhwgQ4vU7jZpBBX69wpuSVkTdp5sEtjHSHZYLlTNvQdfCqmbe4kcqQwA+8Njg/Jp81dvpVHNusybqSTy2c/o2ycEf31dTVflI2yPLasvWY4TuUw5n0V/S4R/wBT+A8ytvg3iJKwhZDL23uLPuq+oqrOue5T3j41aQrxLiaELJeZG2lZ95I/uqNKo8c4MqBz9Umqwm29AeXotvpUSJPhzE5ZX72AVIVstPpUrIrTskbINphuFQvY5h2XCxXtK8r3alpKUptTahCUpXhoQvawvyY8ZBcfcShO+MndXgkdc1HuUxuDGU+4pSUlaGgtKAstlewXpJGcVqslMl3/AKpb3tLKzhMhtRUj6pHVJ8CBVfiFTLSxdaxhI7dOak0UcVTN1TngHs1VhNvz72puKCy2cgrOOaofyFVrUZ15JfccS1HKvefezhau5A+co19MMtcsypIJYSoobbGxkOjfSCOiR+0fSsT77shWtwjYaUISNKG0/uoA2ArFzzvltJUG50Gn581qoomx+7gFu06/v5LNzYDOzMcvqG3Mlk48w0g4+Jp+cJgGEFptPYGmWUgfBOf9awsR5EhRDLZVp3WrZKEDvUpWwrKY0VGzs5rV2pYacdA/i2TTbXTOF2bo8B9045sQNn7x5n5aL384TSMLLTg7Q6wyoH/1zTmQHtn45YVjZ2KSU+rStvga89niK2bnt6uxLzTjWf4hkViejvsKSlxJGoZQoEFCx3pUNqHOmaLv3h4/pDWwk2ZunmP2sjjD0fQ+04FtE/Jvsk41dyu0HwNWkK/uI0tzElaenNSBrH1gOtVDEh1hRKcKQv3XW17ocT3KFfchltKW32STHdzp1fOaWPnNrPh2GnoKmSD3lObdo/NE3LAyX3cwv2Fboy8w+gOMuJcQehSay1pEdx+EkTVyhCjHo69k83HY0yPeV8PWtrtk1q4wo01oLS2+lSkBwAKwFFOSASN8Z61s6CokqYusewjv0KytXFHBL1TXgns1CmUpSp6jJtXhxXtKEKi4p/VK/vMf+ZrSosmZGdSYrikOOKS3jqhzUQAlaDsR6VuvFP6pX95j/wAzWlQgFTbeD0MuMD/mJq/oADTkEXGf0WExwuFezYNjYZ8yr6VJt0iS5EK/ZXIqjHZKv6IvScHZIykk57xXwiC6lazKCmo7SQtxxODzAfmpZUNiVdhFUUolUqYT1Mh8n/MNWUWa7EtSPdQ+0u4uIcZfypGgMpICTnIPUgg1n8R6MwzWmhycdNCbK/wrpfNGXQ1Iu0a6gX+akPyVPANoSGo6P0bLZwgeKu895NR6ztJiTsewr0vHrEkLAcz/ANtw+6ofA+dWjcCGwAFoTIdHz1LKuWD2pQkY6d5rz6toqimeRV7v5p+Zar0anxSkkhElMdoHs48/uqSpDElTQLS08yOs/KNKO31kdyh2VZuwI0hJDDYakYygJUeW4R+yQelUsqTa7ZkS1iVLHSFFWNKD3SHhkDxAyaKKjqKl49l3u/TnddqMTpI4i+c27jx5KUuE8XFFnCo2kOiQ4Q2yho53dWrYEbgjwrFGuluS87boRMt99mQtL7qAIiJLDKnW+U0vdW4O5xVPc7jKuNngOuaGkJuU5hLEcctlLaW2nEDSDuRk7nfeoViJF6s2O2UlJ8lIUk1vKHo/BTXmkzd8gsLiHSOadzYIsmm2ep9FEky5c55T8t5x51WPecOcDuA6AeAFdR4U+j9o+yc/FXXKDspQHQKIHxrq/Cn0ftH2Tn4q6u6wARgDtVNhBJqHE9iu9qbUpVUtQlKbU2oQqLin9Ur+8x/5mtFbc5TrLv8AZOtu/wDgoKreuKf1Sv7zH/ma0I9vrWiwwXht3rz/AKQm1Y0jQD6lTLm3y7hPT2F9biMdClz5QEfGvuP8rbrkyPnsOsTkjvRgsuY8spNJIEiHBmDdbSRAld+toZbUfNO3pWCJIVFkNvadSAFIeb7HGlgpWj1HSpQBdGAOI+o9VVEhk9zwd9D6eSxsuFl5h4Aksutugd+hQVit3UpC9LrZCmnhzWlDoUq3/wBOladNi+zOJLZ1xn0h2K6Oi2z2E946EVNs9xkMvxYSgl2K/Ibb5a8gtlagCptQ3FZ/pFhH8tTB0Rs5uY9Fd4FiX8bOYZhk766H4LYHJLcFiTOdIDcVtahn9t4pIQ2nxJxXMMkkk9SSTjvO9Wd4u064vrbeUlDEdxxDLDQ0tIwop1EdSo9pJqNAhe3PqQtXLiMJ509/9liOOu/7yuiR258KZwTCxhdOWuN3HMqwxSt9umAYMhl6qRL+RtFgjnZbxm3JQ7kPLDTZ9QjPrSxe7cW5B+ZBizpy/JphYT8SQKj3GX7bLdfSjlte61HaHRphsaG0egG9SWQIdnlPnZ67OiIwO0RI6gt1weClaU/wmrgizLanzUAEGW+jfL1KqxnbPXt866xwp9H7R9k5+KuuT9tdY4U+j9o+yc/FXUet/wAx8VPwb/Z3w9Fd0ptTaqlapKUpQhUXFP6pX95j/wAzWhV0S/w5M23uMx0hbgcac0k6dQQSSATtmufOtusrW26hTbiThSVgpUPQ1ocMcOr2b53WB6Rxu9pD7ZW9VIgvtNLdZfyYspAZkY3KMHKHUjvSd/LNYpMd2I+th3BKcFKk7pcQRkLSe49lYanMPsPtIhzFaUoyIknGVRyT8xfaWz291T33Y7bHDVUkZErerdkRwPkfLvXzGlobbXGktl6G4dRQDhxpfTmMqPQ9/YalxLev223vw3Ey4yZUdS1N+680nWP0zR3GO0jIqvkxpEVzlvIwVDUhSTqbcR2LbWNiK+7eSLhbSCQfbIw2JBwXAMZFNvbdpew8QnYpNl7Y5hwPMfb4qI7aHm3n37m6m3xy88pIdwuY+NajhmOk5371EDzqPLntuMohQWjGt7atfLKtTsh0bc6SvtV3DoKjTCpUuapRUpRkP5KiST757TX3CgyZ63OVoQywNUqU8dMeMjvcV39yRuahgWAc8q6c4ucWRhIEJc58tlzlR2kF6bJO6Y8dPzlfWPRI7Sa+rjMTMkBTbfKjMtojQ2f7KO2MIB8T1V4k1lmS4yWE263BSYSFhx51waXpz4/rXQOiR+wns8+ldSmguO2U28hg2G8yg611jhT6P2j7Jz8Vdcsjx5Up5EeKw4++ro20MnHeo9APE11uww5NvtNuhydIfZaIcCDqSFKWpWAfWodcRsgd6tsGY7rC62VlZ0pSqlahNqbUpQhKhTrbAuCNEloKIBCFjZxH1VDeptKU1xabtyKRJG2Ruy8XC0G48OT4epyPqkxxvlI+WQP7yR19PhVHXWcCqe5WG3XDKwnkyD/WtYGr66ehq3p8Stuy+KyVd0eB36U8j5LSY85xpv2d1CJEQnKmHs4Sf3mlD3knyqZEjW96ZAciSuWpMuOsxpnurGlxJw26n3D4dDWC4Wm4W1Xy7eprOEvN5LZ8+4+dR4X9Ot33yL+KmrIhj2F8Z4rOB0kMgjnbw7eI5rBIjWaJJluTZZmOmQ8oRLcopaGXCdL8pQ+ISD51Cl3GRLS2xpaYhsnLESMnQw2emojqVd5OTWKdtNuHhLk/iKqZarDdrwoKjNcuNnCpT+UtfwDqo+XxqGA1o2nlXTtuR5jiHgqvfbtJICQMlSidsADfNbRZ+DrjO0PTyqHFOFBBA9qcH1TsnPed/Ctvs/DVptIS4lBkTMe9JfAKx9mnokeXxq7xUGWtJyjVzS4QBvTm/cocC2W22MhmEwhpG2ojdaz3rWfeJ9am0pVeSSblXzWho2WiwTam1KVxKSlNqbUISn/OlNqquIbo5ZbNcro0yh5yIhtSW1qUlKtbqG9yN+2hCtaf86VWWC5OXiz2q5utIaXNjh5TaCVJQSojAJ37Ks6EL5UlK0qSsBSVAghQBBB7wa1+Tw1FMiNKhKDKm5DDy2jnlKShYUdONwak8R3K6Wq2ql2y2uXGVz2mxGbDilaFA5XhsFW2KsYbrz8SG+80WXno7LrrJzlpxaApSDnfY7U7HK+LNpUWopYqkbMrbrXIXB0FEmRMuKvanHJDzzbGCI6ApZUNQO6j57eFbUlKUJSlCQlKQAkJAAAHYAKV7tSXyOf/AGKcigjhFmCyUpSkJ5KU2ptQhKU2ptQhKUpQhK1njv6JcQfZR/8A6Wq2atb44QtfCnEKUAlQYaWQBvpQ+2tR9ADXRxXHcCtM4Zv35QGLdYYcLhxD1rSGGW5im3SVRy7hTmQ6B0z2dlW1+/KBJsPEFwtr0Jp6FGjtKaLRWmQ4+60hxIUpSikJySDhJP8Avd8Cusu8KcP8tYVyoymXMfsuNuKCknyrVlxI0v8AKu6JDaXEx4jctCVAFPOahtaFEHuzkendS8iSm87CxUyRxnxVF4cm3uXZWYbybhHjw2JaJCUuRnGysuKBUF5zt0HlUq98X3mzN8KT3IcRy1XWPEXNWA7zmHVpS44lB1acYOU5HYa9/Kh9FnPv8T+S6sZFnavvB0G3KwHHLRAcirUP0clthCm1eWdj4E0kWQb3sthMiMmOqWp1AjJZMlTufcDITzCvPdjetFt/G19uNu4uvLcCGi22ltYgaw8XH3tQUA6deMBONWAN1eFacrie5r4WZ4RS28bsZ4teCDqMMKAQzk76tXuHwT410CbZE2fgK52qOnW4xanlvqSN3nz8q8537nPoPCu7NuKNongrfhe7Sr3Y7ddJLbLb8oPa0MauWnlurbGnWSezvrHxZepdgssm5RWmXXmnY7aUSNZbw4vSSdBB/wBar/ydvMu8JWlKFpKmFy2XQCPdXz1rwfQg+tYPylutN8LvtrWAt+ZEQ0k4ytSVcw4HgATXLZrpO5dbPaJjtwtVonOpQl2ZBjSnEt50JU62lZCc743qdVTw19HeGv8ACbf+AmrakpY4JSlKF1NqbUpQhNqxutNPtPMupStp5tbTqFDKVoWNKknwIrJShC5wzwnxlw5cSrhm4NrtEiU0p+LJUjW21qAXlLqSkkDYKBB+FWbVhvKeP5d/UwgWxcLkId5yCsr9nabxy/ndQa3SnpXdopOyFq3HVoud7sKoFtaQ7JMuO7pW4lsaEBWTqXt21e2th2NbbVGeAD0eDEYdAOQHG2koUAR4iplK4u2zutRTwfHTxiviP3PZ/ZuehntFyVlpTuO7Tv5nwrbFoQ4haFpSpC0qQtKhlKkqGCCD2GvqlBN0AWXNHeEOMuHpsqTwdOaMSUrUuFJWkFHXCcOgtqx2HIPn1qg4psvG7ltkXziecwVRlMsxYjCkqSnnK0KPyYS2ns6Ak99dNmcWcL2+4G2Tbk0zLQ2lxzWFctvVuELcAKQojfB/330rjfiWFxA1D4Z4eUZ0qbKZLjjKTyhoJIQkqG+/vKPQAdd9nGk3TTg2xW+cNfR3hr/Cbf8AgJq22qJbYgt9vtsEK1CHDjxtX73KbCM7+VS6bKdHBNqbUpQupSlKEJSlKEJSlKEJSlKEJQ0pQhU914a4bvSkuXK3MPPJGkPDU29juLjRCsetfVp4d4dsmv8ANdvYjrWNK3RqW8pPcXXCV48M0pRdFhxVtSlKEJSlKEL/2Q==;" vertex="1" parent="1">
          <mxGeometry x="1120" y="116.04" width="104.95" height="123.96" as="geometry" />
        </mxCell>
        <mxCell id="tXvfGp_SNmzIa3DF7fdC-6" value="" style="shape=image;verticalLabelPosition=bottom;labelBackgroundColor=default;verticalAlign=top;aspect=fixed;imageAspect=0;image=data:image/jpeg,/9j/4AAQSkZJRgABAQAAAQABAAD/2wBDAAsJCQcJCQcJCQkJCwkJCQkJCQsJCwsMCwsLDA0QDBEODQ4MEhkSJRodJR0ZHxwpKRYlNzU2GioyPi0pMBk7IRP/2wBDAQcICAsJCxULCxUsHRkdLCwsLCwsLCwsLCwsLCwsLCwsLCwsLCwsLCwsLCwsLCwsLCwsLCwsLCwsLCwsLCwsLCz/wAARCAC0AKoDASIAAhEBAxEB/8QAHAABAAICAwEAAAAAAAAAAAAAAAUGBAcBAgMI/8QAQhAAAQQCAAQCBgUKBQMFAAAAAQACAwQFEQYSITETQQcUIlFhcSMyNXWBFTZCYnN0kaGysxZysbTBJYLwNFJkkuH/xAAaAQEBAQEBAQEAAAAAAAAAAAAAAQMCBAUG/8QALBEAAgIBAwMDAwMFAAAAAAAAAAECEQMEITESQVEFIoETYXEUQqEyweHw8f/aAAwDAQACEQMRAD8A22iIgCIiAIiIAiIgCIiAIiIAiIgCIiAIiIAiIgCIiAIiIAiIgCIiAIi6SSwwxySzSMjijaXySSuDGMaOpc5zugCA7rCyOUxWJrutZG3DWgB0HSn2nu/9sbG7e4/AAqi8Q+kylW8SrgI225+rTcma4VYz2+iZ0c8/HoP8wWrr+RyeVtes5CzNatSuDGGT2jtx6RwxsGgPc1rR8l0o2Szd+F4vr56HiS1UqSR18Q1hhM7wJLBMT5SXNaCGjpodT7/gJbG5vHZINbG/w7Gvagl0H9uvIexHy/gFTeA8BnKGE4lF2qa0mWYz1OGw4Nm0K749ysGy3ZI6Hr8B5x09e1UlMViKSGZp5gHjR6fpMcOhHxBWc30vY+L6jrsujyRlFXF8/wDTayKjY3ii5W5YrwdZh7CTY9YYPmejvx6/FXCpepXovFqzNkb+kB0ew+57T1B/BFJPg9mk9Qw6pex7+HyZKIi6PeEREAREQBERAEREAREQBERAVriji7H8Mxwskhls3bLHvrQR+wwtYQ0ullI0B18gT8PMabzvFGe4geTkLOqzXc8dSDcdWPXY8m+pHvcSfl2Vs9K/2jgf3G1/easf0a4LC5exmLWSqssuxz6IqxTbdA10zZXOe+L6rj0Gt7Hw31WipKyEHw/wfxDxEWSwRerY8n2r9trhG4efgR9HPPftodPrLbvD3BvD/DwbLBEbF/l0+9bDXz9e4iAHKxvfoB8yVYwAAAAAAAAB2AHkFyuG2yhY9qnTuxGG1CyWM9QHd2n3tcOoPyKyFxsb1sb1vW+uvfpQ5lFSXTJWik5Lha1BzS48usRDqYnaE7B+qezh/A/NQEU9qpN4kMkkE0RLSWkse0ju1wP8wQtrKGzrMPVp3MzdoMsux1eWzygN55PDbsNJd7J+G96Wbh4Pz2p9Ei5demfS/wCPjx/vB0wOUyWRjJs03BjW+zbbpkUpGhoMd138R0+SnFpMcZZ/P8Q8NQySeq4/8t4wNo1HObGWiyzQmf0c/wAu+h0+qFuxaU1yfcwY5Y4KM5dT8hERDcIiIAiIgCIiAIiIAiIgNRelf7RwP7ja/vNWZ6JPq8V/tMX/AETrD9K/2jgf3G1/easz0SfV4r/aYv8AonWn7SdzaKIizKa4sS3mZy4afO6z+UbTa7Rp3tue9o0HHl6fH/hWPB4fK07s169LE901Z8btSvll53SMf7TnDXl71CQfnUPve3/rKr8FnFXufmfS9NHLOeWTftk6XY5UFxf+bHEv3bZ/pU6oLi/82OJfu2z/AErVH6Y0Zw/+cPDH33jP9wxfSC+b+H/zh4Y++8Z/uGL6QXU+SIIiLgoREQBERAEREAREQBERAai9K/2jgf3G1/easz0SfV4r/a4v+ide3pMwmavvxuQpVJLNenWnisiv7c0fM8PDvCHtFvv1v5ea1ri8xlsNYFrGW5IJDpsgaQ6KVoP1ZY3eyR8x08tLRbxoh9KoqDw96ScVkPDrZlrMfcOmibZNGVxOvru6s/7jr9ZX1rmua1zSC1wDmlpBBB6gghZtUUrMXD99maGSdNW8H12a1yDxPE5Xl5A6t1vr71Z0RRKjzafTY9Omsfd2FBcX/mxxL92Wf6V55/i/AcPNdHZmM17l2ylW5XT9RsGTZ5Wg9OpPyB7LUXEHGef4gMkMknquPcelKq4hjmg7Hjv6Oee3fQ6fVC7Ss9BG8P8A5w8MffeM/wBwxfSC+f8Ag/C5nKZnDXKdR76VHJU7Vq0/2K7GQytkc1r3dHO6dhvv113X0ArPkIIiLgoREQBERAEREAREQBERAFVOIeBsBnvFsNb6lkn7PrdVrdSu/wDkRdGu+fQ/FWtEB8753hbP8PPcb9fmqF3Ky7W5n1X76AOdrbSfc4D4Er2wHF+f4ecyOtMJ6IPtUbRc6EDz8F31mH5dPeCvoB8ccrJI5GMfHI0sex7Q5j2kaLXNd0IWvOIfRnQteJZwD2UrB251SXmNKQ9/oyNuYflsfAd12pXsyUS2P9IfCVylLasWTRmgaDNVsgumJPT6DwwQ8E+7r7wFSeIfSTlch4lbDNkx9Q7aZyQb0o69nN21g+RJ/WHZU2/i8tjLYo36ViC29wbFEWF5nJPKDAY9hwP6pKufD3o1yl7w7Oce/H1Dpwqx8pvSj3PPVrB295+AVpLcFJp0snlbXq1CtPcuSEvcyLbnbJ6vmkceUD3lzgtocPejGpB4VriGRtqYae2jA5wqMO9jxn9HvPbp0H+YK+YzE4nD1m1MbUhrQDRcIx7Ujh05pXu29zviSVnLlybFHSKKGCOOGGOOKGJoZHHE1rGMaOga1rQAB+C7oi5KEREAREQBERAEREAREQBEXBIaC5xAABJJOgAOpJJQHKLwfcoRw+sSWqzK++XxnzRti5tka5yeXyPmu8M9exG2avNFNE/fLJC9sjHa6dHMJCA9EWPYvY6oWC1cq1y/qwWJ4oi7y9kPIXoZoGxiZ0sYiIaRIXtDCHaAIcTrr5dUB2McbnRvcxpfGSY3EAuYSOUlpPUb812XVrmPa17HNc1wDmuaQWuB6ggjovP1qmPG3Yg+g0JvpWfR7JaOfr06gjr7kB7IuGua5rXNIc1wDmlpBBB6gghdY5YZeYxSRycruV3hva7ldrejynugO6LFbkcW+b1Zl6m6xzcvgtsQmXm93IHc2/wWUgCIiAIiIAiIgCIiAIiIAo/NfY2c+7L/APYepBYOYa9+JzTGNc978deaxjGlz3OMDwGta3qSfJAa94I4Swea4fx97MNnugPuw060s80dWnGyw9rvBjhc32nHbnEnz+HXGxVj/CGW9JlSm57qWOx8VypDK4uaLDi0Rc3Xy5w1x7kNG+ytvo+r2qvCuMgtV568zZsgXRWInxSNDrUjhtjwHdR1HRQsWEsZLiz0kQWa9qGlk8XDVhtPgkEJk5YdOje4BpLSN6B8l1ZCCwbvRnPVN7izJxXs7ec+a562brvV9kgRM8JobsDWz+A0BpZ3Ddjh+TOZfhSjcGS4Xy2PlsV4JTI71WdujJEwygO7bIPwad7BJ98Pl7PC1VmE4k4cvSupF8dO9jqTLcNiEuLmjnOh030O961sAjrO0uIbLquZyr+E79SpVZGMW31b/qF+R/MCzwImF7R9XrojRPU6RgqrstxHwYzJcIQsfbs2HwN4Xs8zAWRXZHRe0HEAEHfKOwdv9HSkM7w5W4c9Hmaqgtluzuo2MlZ0S6ey63ETpzuvK3s3+Pdx3xR4KucQYzMZbiBz4s/muSxSMnOw4xsftQs5O430Dh3DdDo4Er2lk4k4i4Mz+Fv4+6zO0BDE/wAaF7GZBtedjxJBK4BjnENIOj1OiOj+lBdMB9hcO/dON/28a1dho8vJwX6QI8SJfWnZuQFtYO8Z0HLB4ojDOu+XewO435nrYMJxjkjjsbiK3DOZlzFWtXo6kgdBRa6FgiEs08unNb02QW/DfmsThI8T4bh/iWxBhJ7GQOdEwqzslrGWExwiWSFsoDj2dy6/nrRgI3GM9DOQoQUZ43Y7IeCyKSa0+xFZjscunS+sbMPfZ9oAfqjsNsUYI6tOjWimkmjgrwxMmmkMskrWMAD3yHuT32tc5viDD57H2qjuD81Lm5oXQ12zYzUlaw4abILA9sBp69hvWjoHpdOFcfexfD2DoXnA261UNmAdziMue54i5hsewCG9Drp7lGCaREUKEREAREQBERAEULl8vPjLONjZCJY7Jk8RrQ50xLS1rWxAEDZ37l1/KuQp1Lt3L1Y67A6NtKCJ4fI8uDjyPdsjfv6DoD0UtHklrMUZyg3/AE87bLa92TiKvC5xk6P1oY+iIi3nFZz5PWSzv79b/wDNeS9pM41+FnylVjfEiLI3xTkkRyGRrHNdykHz2EtHK1uKm5WqV7pq0vBNoq63I8U3IY7NLH1mQGNj2+tOIlnOtl0bOYaaf0dn/VZWLzUV2C46ywVp6OzcYd6a0b9sb9ryII+H8SaENbinJR3V8Wmk/wAEwirUWW4iyXizYujWZTa5zY5LjjzylvQ604D59OnbfRZeOzRsOuVr8Hqt2mx8s0YJLXRs6uczfXp08z3B2d9IpIkNdim0ldPhtNJ/hk0sTIX6+NqyWrHOY2FrdRgFxc46AGyB/EqHr5LifIxm3Rq4+OoXvbCLT5DLIGHlPVp1/p/yfezkb8eFuXLVCOKxC8ROr2D4kUg8RrC/Q68p306+X8XVscy1sJY5Sha2bTadfkkm36Jr1bT544obTI3wmdwjLvEAc1unHuspUrPWMnPDipJK9dtV76c1ZzHHmfM+Fryxzebo3ZIHTyU6/KW6GOmuZeCKKdsro4oa7+YSdNt9okj3k+4D8C6jjFrouc4z2UUndP5/x5JhFW23+MXw+ttx1MQlviCAuf6wY++9c+9/hv4eS9JeIA/Dy5KpGzxopY4ZIZy4iN7nAEEtIOtHYKdSNFr8VNytbXumrS8FgRQlS/nrz45YqMcNF8Ejo5LJIkll8PbHcgdzBhPw7ea98Lk35OvM+ZjI7MEzoZ42bAae4IDiT8O/kVbs1x6vHOSir3urVXRKIoiTJ2HZqHF1mROjZD492R4cXRjW+VuiB5t9/wBb4KXS7NceWOS+ns6+QiIqahERAVzNfbXCn7xJ/UxdOLWSer42YEiOG2DIQObkLgOV3Keh1o6//VM2cbVt2qFuUy+LSeXwhjtM2SD7Q117e9ZM0MNiKSGZjZIpG8r2PG2uHxXNcny8mjlkjmi3XW1Xwl/dEPHRzsrI5YuInPjkAexzaNctc09QQdqOt471HA5xzbrbbbk1ebnYxrG8/jNa4jlcR1P+izv8L44czWWslHA4kugjs6jO/Lq3f80zdWpQ4du16zBFDGIOUbJ6mdhJJcd7Pn1Ua2PLl08linOcKqMv3N9uyZJYuSN+NxrmPa5oqQNLmkEBzYw1wJ+Hmqm8Ou2uM56Y5oTWA5mdWvIka4luu+w15/H4qVh4dxtupRmElqAz1Kz7Da0obHK4xNJc5jgRsqao0KeOgFerHyM3zOJJc97z0LnuPUlKbo0enzaqMI5ElFLlO72rxtyYfD00EuJoCIjcMTYZWjW2yN3zbHx7/iowuhtcVuMXK6GtRlZdd08M+w5hDj28wP8AtPuWbPwxipZZJYpLVUyb8RlWUMjdvuOVzTr5LNp4nGUa81aCAeHOC2wZDzumBBbqQny79OytPg6WnzzjjxTSSg07vmuNq2+5ER4KzE0TYPLyxQSfSRxuPiwO3205p1r5tKxLGRtX+Hs4y0GesU7ENd749ckn0rDsa6b79v8AlSZ4Yx4LxBayNeJ++aGCxqMj3e00n+azPyLjBjpMYxj460ha6Qsf9K9wcHcznuBO+gU6X2Mf0eZxlGC6U01XU2m2tqXYg819j8L/ALSh/ZasnixrhFip3NLoILrXTtA3sHRGx8dEfj8VK28TSuUoKMvieFAIhC9rgJGGNvIDsjXbv0XFTEUqtWxTLprENhxfMLb/ABC4lob00BrsNfJWjXJo8s+uHaSW/hr7GY2eu6EWRIzwCzxRLzDk8PW+bm7KhO+kxXFVmNpbWnyNcQbGh0ke46Hyc3/wKxHhTFbIE98Ql3N4AnHh9/i3m/mpGfE4+egMaGOiqjk5WwO5COU83cg9z3UabJqNPqNUvelGk63u21XjZHvT/wDSUv3aD+21V+WRmEz88z/ZpZOvJK8+QmjBefx3v/7qyxxtijijbvljYyNuzs6aA0bKqvEFqllX47G0XtmuOtuaXsDvoGgFj97HbzP+X49bLZGuvf08MZJ++LVfd8V82ZfDMMskd/LTj6fJTvc3f6MLHHQHwJ3+ACsS8oIYq8MEEQ1HDGyJg/VYA0L1VSpHt02H6OKMO/f89/5CIip6AiIgCIiALq+OOVpZIxj2HW2vaHNOuvUHouyIGr2ZwA1oDWgBrQAAAAAB0AAC5REAREQBERAEREAREQBeEVSlA974K0ET3753RRMY52zs7LRte6IRxTdsIiIUIiIAiIgCIiAIiIAiIgCIiAIiIAiIgCIiAIiIAiIgCIiA/9k=;" vertex="1" parent="1">
          <mxGeometry x="1113.81" y="521.2900000000001" width="122.38" height="129.58" as="geometry" />
        </mxCell>
        <mxCell id="tXvfGp_SNmzIa3DF7fdC-7" value="" style="shape=image;verticalLabelPosition=bottom;labelBackgroundColor=default;verticalAlign=top;aspect=fixed;imageAspect=0;image=data:image/jpeg,/9j/4AAQSkZJRgABAQAAAQABAAD/2wBDAAsJCQcJCQcJCQkJCwkJCQkJCQsJCwsMCwsLDA0QDBEODQ4MEhkSJRodJR0ZHxwpKRYlNzU2GioyPi0pMBk7IRP/2wBDAQcICAsJCxULCxUsHRkdLCwsLCwsLCwsLCwsLCwsLCwsLCwsLCwsLCwsLCwsLCwsLCwsLCwsLCwsLCwsLCwsLCz/wAARCACxAT0DASIAAhEBAxEB/8QAHAABAAICAwEAAAAAAAAAAAAAAAYHBAUBAwgC/8QAUxAAAQMDAQQFBA0IBggHAQAAAQIDBAAFEQYSITFBE1FhcYEHFCKRMjQ1NkJyc3R1obGysxUWI1NilLTSFzNSVcHRJUNEgoWSouEkJlRjZJPw8f/EABsBAQADAQEBAQAAAAAAAAAAAAABBAUGAwIH/8QAMREAAgICAAQCCQMFAQAAAAAAAAECAwQRBRIhMRNBFCJRYXGRodHwFVKBIzKxwfFC/9oADAMBAAIRAxEAPwC26UpQClKUApSlAKUpQClKUApSlAKUpQClKUApXFM0BzXHX31qblqGzWzaQ890kgf7PHw47nqVv2R4kVDLlq27zdpEY+ZMHkwol9Q/ae4jwA760Mbh1+T1itL2sq25VdXd9Sb3G92i1giVIHS4yGGcLfP+4OHeSK07GtbO46EvR5bCCcB1SUOJT2rDZKvUDVfHJJJJJJJUTvJJ5k0roK+B0RjqbbfyM6XELG/V6IuWPKiS2kvRnmnmlcFtKCh3HHOu6qajS5kJ0PRH3WHN2VNKxtDqUOBHeKl1t1sobLd0Y2hwMiKkZ71tZ+w+FZeVwW6r1qvWX1LdWdCfSXQnFKxok6DOb6WG+08jmW1b09ikn0ge8Vk7qxJJxemupfTT6oUpSoJFKUoBSlKAUpSgFKUoBSlKAUpSgFKUoBSlKAUpSgFKUoBSlKAUpSgFKUoBShqEazukhDjNrYcUhtTIflFtRCnNslKGyRvxuJI55HjZxceWTaqonldaqoObN3ctTWe3FbfS+cyE7uhjEK2T1OOexHbvJ7Khly1RebgFtpcEWMrI6KMSFKT1Ld9kfDA7K0W4d3ZSuxxuFUUdWuZ+1mHdmWWdOyH/APfGlKVqfAqHCiQlRGMhJIzw8akd806zaIMCSiU48464hl8LCAkqW2pe00EgHAxwyfq3x0NuyAtEdp15SklIDDa3N5GMZQCKnWq409VosYDS3FRy2JQaSpxSV9Bs7WEAnGc5P+dZuXfKu+qMZaTb2Wqa1Kuba+BBaU3bRTwUOKTkKHeDvpWl5FX4nYw/JjOpejuuMup4LaUUq7sipXbtaymtlu5sh9G4dPHCUOjtUj2J8MVEKVVyMOnJWrI79/n8z1qvnV/ay34Fyt1xQXIcht0D2aQdlxHYtCvSHqrNqlW3HmXEOsuLadQcocaUUrQeO4irWsNwXc7XDlu7PTELaf2BgdK2ooUQOWcZ8a5LiHDfREpxe4vp7zZxcrxvVa0zaUpSsgvClKUApSlAKUpQClKUApSlAKUpQClKUApSlAKUpQClKUApSlAKUpQA1U+oJHnV5uroOUpfMdGOGywA1u8QatKU+mNGlSFY2Y7Drys9TaCqqaKlLKlq9kslaj1qUcmuj4FVuc7H8Pn/AMMviMvVUT5VnZURxxuqYu6UgSbYzKs0hx6R0aVnpHQpEg4ypPUlXV6u0Q+s223G5W+Q0qApZW66230A3okFSgkIUg7snOAeXhW9mV2zip0y018mZ1E4J6mt7OmPEmS5SYMZha5ZUpKmiCgt7JwVOkjcBzJ+vnOrXo22xgh24YmyeJSrIitnqQ3z71Z7hwqTJSjJX0aEuKSAo4TtYG/BUOOKhOr39QpcKFpU1aFYS2qMpRQ6TykqGCD1Dh3nhgenX8QsVMHyL8/NGj6PXjRc5LmJE5fNNwVtxUSmNsuNsoZhoLgClqCAD0I2RvO/fWfNmxLfHXKlLUhlCm0KUlClkFatkbkjNVPbk7dxtKOSrhDHqdSasbVQBsNzP9kxlDwkN14ZeBCi6urbfN3+ej0pyZWVynrWjt/8tX9tQHmcwAZOMdMjt5OCoredIvRUuSbYXH2E5U5HX6T7aetsgekB1ce+os2460404ytxDwWA0pkqDu2TuCNj0s9gq07C5fHIKFXhtDb/APq94Dym8blPoSNkK7j6juq1kVW8L1Oqe4vyf2/2jyrnDL3GUdP2lbWu2y7vJTGiD0QQZEgglqOjrUeBJ+CM7+4Zrb6js9ltDUFEV95UxSiHkOubalNBP9apPwd+McM7+rdKtSS5tttbrtvQEKW8ht15tCf0CFk5cxwyTgZ5Zqs1qWta1uKUtxaipa1qKlKUeJUTvzV/Etuzpq/fLBeS8/iVroQx4+HrbfmcVOdDScsXWGSP0TzUlA6kup2D9afrqDVINISOgvTTZOETI70c9q0fpk/Yr11a4pX4uLP3dfkeWJPlti/4LMpSlcCdGKUpQClKUApSlAKUpQClK5oDilKUApSlAKUpQClKUApSlAKUpQCuK5rjnQGi1ZJ83skxOcKkraipweS1bSvqBqsamuuZPuTDB/XSnB6m0H71Qqu14LVyY3N7W/sYOdLmu17BUi0fBEq7GQsZRb2C8nIyOndy2g+A2iKjtTjQiEhi8ufCVJYQfipa2gPrNe/FLHXiza8+nzZ54kea5bO/U9+m22XbY8NaAtA86khQCkuJVlCGlc8H0juPV1b9ta7tbb5FXshO1s7MuI+EqUja3bwdxSeRx6juEF1IX5Oobo202684hUdpLbKFuKADKMDCAeusmzaf1QmZDmIbMFLbqC45IWkOKZ2hto6JGSdobsHHXyrHnhY6xIyclGWt9+++ui7G+13Na2iQJ0hCZukSfFfW0ww8l/zXZCh0ickBDijkJ7N/Z2by4wk3CFMhKcLYkN7G2kAlBBCgcHurm4y1QYM6YloumMwt0Ng42tkcz1ddQyy6ovT90hxpakvsy3CwEoabbLaiCsLSUgHAwcg8u7fnQhlZcfH3vk/11/NlmUqqXya/uJBZtNW+0lLx/wDEzjnMh1IGwD8FlG8JHXzPX1azUOqAwHYFrcBkb0PykYKWDwKWs5BV1ngO/wBjILxGny7dKjwH0sSXUpCVqJSCnaBUjaSCRkZGarWVYr7CyX4D+wM/pI4D7eOvLWT6wKt4EK8u13ZU9v2P87e5HjkylTFQqj09pYdvfZv1kbU8kYlx1xpKRg7Loy2vHjvHhVXOtLYdfZc/rGHXGV/GbUUH7KnehnCq33FrJw1PVgcMFbSFEY76iuoEJRe7wE8DKKt3WtCVn7TV/hv9HLtoj27/AJ8yvlevTCx9zV1kQpBiTbfL4CPKYcUf2AoBX1E1j1wQFBSeSgQfEYroJxUk4szk9PaLt3cqVrrJKMy02uQd6lxWkuE8ekQNhWfEGtiK/NJxcJOL8jqovmSYpSlfJIpSlAKUpQClKUApSlAKUpQClKUApSlAKUpQClKUApSlAK4Nc1xzoCsNVyfOL3MAOUxksxU/7idtX1qNaInAJPAAk7s8N9bbUMR+JeLil1JAkPuS2VYOFtuqKsg9hyD3du/VV+iYaiseCg+mjmL2/FfN7STxdF3aQ0y67KisdIhK+jKHHVoChkBRBSnPXUqsFph2hmSw1MEl913bkqygAKSNkBLSVHGBjO81XTl0uzkdEVc6UqOhIQlouqCdkcEqxgkd5NfVnn/ku4xJgB6NKi3ICRvUw5uXuHVuUO7trMysPLvqkrLF7kkW6b6a5Jxj/JZ0252e1qT52+2wt8KWAELUtwJwknDaSTyFad7WljbyGW5j55bLaW0nxcUD9VZd/taL1bkGMpCn2sSYSwr0XApO9G11KGMdoHVVatxpL8hqEhCkyXn0xQhQwttwq2TtA/2d5PdWdw/Cxsitysb2u62Wsm+2qWodn2LXgTI13t7MpLSuglNrSpp9IO7JbUlQ3gjca6YVgsUCSqVFhoQ+c7CiVL6IEYIaCyQkHs667yYVltmT6EW3xUJAHEhACUpHao7h2molYtTznrqpm4vZYnKKGE4SERXicoQkgZwfY7zxx11n1UW2QsnQ2or6+739D3nZCLirO7JBd9RQ7PIjx3o8h1TrReKmdgBCdooHsyMncf8A8a6WdX6cdxtuyGCf17C8Dxa2hXTrKB5xbkTEJy7AWVKxxLDmEr9RwfA1CbVa5F4mIhtbSWxsqmPAbmGTx3/2lcEjx5VoYmDi343izbTXd7/PIr3X3V28keu+xa0V6HKZRKiKbWzIAWhxtOA4PY7XAGovdNLR7nNlyYlybQ+4rakMrCXwlzGPgrChy3YNbS9zmbJaFJYwhwtCHAbTxSdnZCgOpA3+rrqsG1KaUlbSlNrTgpW2pSVgjmFJ31HDMS6fNdTPl8l57Jy7oR1Ccdm2u+n51mSw486y808stpW0FJKVgbWypKuvfjf/AN9RWTKn3GaGky5T74ayGw6sqCc8SO3t41jV1NCtjBK5pv3GTY4OW4LSLB0RJ6S2yYxO+JLXsj/23gHR9e1UrFQ3Q0R9DFwnLBSzLWy3Gzu6RLO3tOAdRJwD2euZVw3ElFZU+Ttv/pv4u/BjsUpSqBZFKUoBSlKAUpSgFKUoBSlKAUpSgFKUoBSlKAUpSgFKUoBSlKA1d6tEe7w1MLwl9vK4rp39G5jG/wDZPAj/AC3VW+w/FeejSEFt9lZbdQeSh1HqPEHmN/OroP8AlUa1PYRcWPO4qP8ASEdBAA3GQ0Mnoz2j4Pq57tvhXEPAl4Nj9V/R/Yz8zG8Rc8e5XFKescsHcQRu3g0rtEYZKdN6kTASiBPUfMyT0DxyfNyd+wv9jq6u72MyNttb06NdktIMpttQbebV6LiVp2QpWNxIG5J6j1VUhIAJPADtz4YqfRJDumNNRVym9qW+6tTUcnGw4+S4ELPUkey9VcvxTDUZqyh6lJ617d9zVxL9xcZ9l1PrVzF9mIixoUN16In9O+ppTZWt0ZSlOwVBWE7z3nsqHJsuoVqwm1XAKyMEtbGCOBClEDd31Ko2uYxAEuA8hWPSVGcQ4knrCXNk/Wayla3seCUx7gTyBbZH1l2mPPNxa/BjTv8APiTYqLpc7mbiCmbJtjLd1YDcl2OpiW3toWFZBQVZQSPSG/xro/0Fpi3hKQGWE8ADtyJLuN/H0lKPX9gG7Qq10npmsW8pihWHlLd2ngk7tpISNndxIyfCsXWkV8yYdySSuK8whgKG9KFglY8FA5HdVGvBsdyqv9WM+uv9HvLIgoOVfVo0d2usq7ylSXgEoSCiOyk5S03nOM8yeKjz7gANfSldlXXGuKhBaS6GHKbm3KXcVt7BZXLzKIWFJt8YpMtY3dITvDCD1n4R5DtUMYVut8u6TGoUXctfpOuEZSwyDhTqv8BzO7uteBBi26IxDio2WmU4Gd6lqO9S1nmo8TWTxTiHo8fDrfrP6F3ExvFfNLsvqZCG22kNttoCENpShCEABKUgYAAG7Ar7pSuK79Te7ClKUApSlAKUpQClKUApSlAKUpQClKUApSlAKUpQClKUApSlAKUpQCuDXNKhgg2rbDsl27w0eifSnNpHsT+vSB/1+vrqGVdSkpUCFAEEEEHeCCMEEGq01HYzapHTx0H8nyFfosb+gcOSWlHq5o9XwfS6vhHEOZLHsfXy+32MbNxtPxI/yaiC8xGnQJL7ZdajyG3nGxj0gneOO7dxHdW21He2rw/G83Q4mNGQvY6UBK1uOEbSiEkjG4Ab+utDSt2ePCdsbn3j0KCtkoOHkxSlKsHkKkp1FFd06q0yGHVyksIjNL9EtFKFDYdKs5yAOGOI7ajVKr341d/Lzrs9nrXbKvfL5ivttp591lhhBcffWGmW08VrPAf4k8hv5V1kgAk8Bx5+AAqw9K2D8nt+fzEDz+QjCEKG+KyrfsfGPFXq5b/HOzI4tfO+77H3RS7pa8vM2VhsrNmidGCFynilyW8BjbWBuSn9lPBI8edbjdXArmuCsslbNzm9tnRxiorliKUpXmfQpSlAKUpQClKUApSlAKUpQClY8ibb4gzKlxY44kyH22hgfHIrtadZfaaeZWhxl5CHWnGyFIWhQ2kqSobiDxFAfdKUoBSlKAUpSgFKViybha4QUqZNiRwkFRMh9prAHE+moUBlUr5QpC0oWghSFpCkqScgpUMgg19UApSlAKUpQCumVFjzI70aS2HGXk7K0K5jOQQRvyOINd1KlNp7RDW1pkMd0JHK1Fm5SG2yfRQ4y26pPZt5BPqr4/MJP96u/urf89TalaH6plr/AN/4KzxKX15SE/mEn+9XP3Vv+en5hJ/vV391b/nqbUqf1TL/AH/RfYeh0/tIT+YSf71d/dW/56fmEn+9nf3Vv+eptSn6pl/v/wAfYeh0/tIzbNH2+BIblPPOzHmVbTAdShDTaxwXsJ4kcsndUlwa5pVO6+y+XPbLbPauuNa1BaFKUrxPQUpSgFKUoBSlKAUpSgFKUoBXNcUoDzYoA5JAJwd53nh1nfV/6d9wNOfRNu/h0VQB4HuP2Vf+nj/oDTn0Tbv4dFCTaUrWyr7p+C+uNLukFiQgIUtp59CXEhY2k7SScjI3ivuHebJcXVsQLhFkvIb6VaI7iXClvaCdpWzw30IM+lYU27We3KaRPnxYqnQpTSZDqWysJIBICurNcQrxZbit1qBcIspxpCXHEx3UuFCFEpBUE9tAZ1K6ZUuHCYckzH2mI7eyFuvKCEJKlBCck9ZIArAa1Hpl91lhm729x59xLLLbchCluOKOAlIBzk0Bnyfa8n5F77hrzc4AWHVEAq6FeSRkn0TxJ316Rk+1pXyD33DXm9YJjrAySWVAAczs0JPR0H2lA+ax/wANNZFRxOq9KQI8RiTdowebjsJWhnpJBSoNpyD5ulQz41m2/UenLqvooFyjvPYJDRKm3iOZS26EqPgKEG2pTOedM9tAKVqrjqLTtqX0c+5R2XRgloFTrwyMjabaClDPLIrBY1to19aUJuzaFKOB5w0+ynxW6gJHiaAkdK+EONOIQ42tK21pCkLbUFJUk8ClSd2K+6AUrqfkxIrfSyZDLDQOOkkOIaRn4yyBWld1lo1lRSu8xSRx6IOvD1tJIoDf0qPI1poxwgJvDAJ3fpG5DY9biAK3ESfbp6C5BmRpKEkBSozqHQkkZAVsE4PfQGTSsaVPt0FIVMmRYySCQZLzbWe7bIrTua00Y0SFXhgkfqm33R4FtBFASGlaGPrDR8pxLTV3jBaiAkPh2OCTy2n0pT9db0KSrBByCMgjeCCMgg0BzSmcV0SZcKEyuRLkMx2E7lOSHEtoBxkDKyBmgO+lRpWudFpXsflQHfjaTGlqR/zBvFbe33ez3VCl26dHkhIytLSx0iB1rbVhY8RQGdQ5pWpc1Jpdpxxpy8W5Djbim3ELkNgpWlWyUnJ4g0BrJWvNIxVuN+dPyHG1LQtMaM8cLQSlQ2nAlO49tb63TmbnAg3BhDiGZjDchtLoAcShYyAoJJGfGvP0opXJnKSQpK5UlSFDeFJLqiCO+rd01qDTkTT9gjSLtAafZt8Zt1tyQ2laFpRgpUCeIoCX0rUJ1NpZam0JvNuUtxaG0JTIbJUtZCUpAzxJ3CtvmgFKx5c6BAZMibKYjsjd0j7iUJJ44G0d57BWiOutFhRT+VM4OCpMaWUf8wboCS0rCgXW03RtTtvmx5KE42+hWCpGeG2g+kPECs2gPNp4K7j9lXN+W4th0fYpruyt42m3tQ2ScF+QqOnZT17I4qPUOvcaZ45HWMevdWdcbrNuSYAeI6K3wmIUNlB9BDbTYQSM/CXjKj3ckjAk+W27re7l0bQVKudxfWs53bS1HK3FkbghPM8gAOoG69N6fh6dt6YrRDkl4h2fJKcKkPYxnrCU8EDkO05Or0NY7TbrYzcI77UyZcWkqkTED0UpB9rMhW8JQdxBAJIyeQTL6EFXeU/25Yfmsz8VuuryYe6l++j4n4zldvlP9uWH5rM/Ebrq8mHupffo+J+M5Qkl+vPetdvjwf4tqqn0/wC+DTP0tC+/Vsa89613+PA/i2qqfT/vg0z9LwvxKEF8yfa0r5B77hrzkCAgEnASgEnqAGSa9Gyva0r5B77hrze57Xd+QV92hJI4mjdYy2ESGrYG2nEhSBJkMMuLSRkENkk7+3FaZ+PNgSXGJDb0aZFcG0kkodaWMKCkqSfEEHqOd9eg4PtKB81j/hpqtfKbGbbn2aWkAOSIshlzG7aDDiSknu2jQEr0Vfnb5aj50oKnwHBFlq3ZdGztNvEDdlQ49oNYGutTyLS01bbe50c+Y0XHXk+zixiSgFvltqOQDyAJ44NR/wAmTzibteo49g9bWXiP22X9gH/rrQ6ukLlakvy1f6uV5sjsQwhLQH1E+NAYNstV3vUlyPbY6pDyQHZDjiwhpsLJ9N51fNRBxxJxwrPuuktTWaOZUyMyuKkpDrsN7pktbW4FwKSlQHLOCN/LjWy0xq6Dp2A9F/Jbsh9+U5JffS+2jbJAQhOCknCQAOPX11uJPlIgyo8mM7ZH1NyGXWHAZTRBS4koIxsdtAaPRWoZFpuUW3uuqNruDyWFNqOUx5Dh2W3W88AThKwOvPEZNzdVea1KU0jbB9JkJcSRx2mztA58K9IMrLjTDh4rbbWe9SQaEFEamcdd1Bf+lccc2LlLQ30i1L2EJcICUbROAOQFYsS03yenpINruElolQDjLCi0Sk4IDisJ3c99ZGovfBqL6Vm/imrV0D71bT8rcP4x6hJVLmntVNAqcsd0SnjlMfpMf/UVH6qsnycQHYllmPPsOMvzLlIWUutrbc6NlKI6QpKwFclHhzqa0oQVL5TAPy5bTgZ/JLYzjf7Ye51GbVYr3ezKTa46HvNei6cuPtshHShRSPTOTnB4CpN5TPdu2/RTf8Q9Ww8lvHU/fbPskUJIPc7LebMtpq5xFMF5Ki0oLQ606E42ghaCRkbsjdx7amnk5vkkSXrDJcUtgsLk28LJUWVNkdIykn4JBCkjlg9dbnykNIVYGHCBtM3OKUnAz6aXGyM+P1VAdGLUjVOnyn4Tsls9qVRnc0ILpuE6LbYUyfKJSxFaU65j2RxuCUjrJwB31RN5vNxvkxUyatR9IpjR0FSm46VkBLTSBzO4E4yT34qyPKTJW3Y4cdJI87uLSXMH2SGm1u7J8Qk+FVpZ5sa23S33CTGVJbhuqfSylYQVOhCkoVkgj0SQrhyoSbhnQesno4f80itEpCksPykpkEYyAUpSUA9hXWjSq52icSkvwrjCd2Tj0XWljfg5yCD1bwQeYO+wv6T4v9yyP3pv+SobqW9Rr9cG57MNUVXmzbDqVOJcLikKUQslIHIgeFAW/py8ovtohXDCUvK2mZaE52USWjsOBOeR4p7CKrC4aO1lIuNzeatJLT8+W60rzqINptx5SkqILmeBzwqR+S95Rh6gjk+i1OjvJHUXWAD92rExQg83rQptbiFjCm1rbc54UhRSoZHdW6iaT1bOjRpkW2FyPJaS8yvziKnbbUMg7K1hQ8RWqm+3Lh88l/jLq79Je9nTP0XE+5QkrGJovWbcy3OOWpSW2p0J5xXnUM7KG30LUcBzO4A1bl1uMa02+bcZGS1GbKtlJwpxajsobSetRIA7+ys6oB5TZC0W6zxQcJkTXHV9oYaOAezKs+FCCu7pdbne5plTFrefdWGo7DQUpLYUrCGI7Y7wOs8STW5RoLWa2A/5pESojaEdctIkY6iAkt57NutVYbjFtN1h3ORGVKERLymmkrSjDy09GlwlQI9EFWO09lTr+k+J/csj96b/AJKElesP3S0Tw8wp2HcIbqkEKGFoWk4U06k7ik8CDx+ur1sd1bvVqgXJtOyZDZDrYP8AVvoUW3EeBBxVL6iu8e+XR24sxVRulZYbdQtaXCtxsFO3tJA5bI8KmPk/uLse0T2AMpRdHlJyCcBbDCyPWSfGgK1PBXcfsqb3zS2bBY7/AG9sbQtNvXdWWx7IdAjMpKRz/WdfHkcwlQICshW4HPonqq/bAlKtP6eSoAg2i3hQUNxBjoBBBoCpdKame0/MKXVKXapS0+eNDJ6JXASWh1j4Q5jtAq7G3Gnm23WlpW06hLja0EFK0LG0lSSOR5VSWrbAbFdVoYQrzCYFSIJCVEIGQFs5/YJGOwipL5O9QKCjp+Wo7Oy49alqCtwHpOR8ndj4SPEchQg+PKe2oSNPu4Oypmc3n9pK2Vf41g+TWQ01fJ7C1AKmW39FnipbDoWUjtwonwPVU41jYnb7aujjBJnRHPOYgUdkOHBStnaO4bQ4doHKqYKZsGQNtMmJLjuZTthxh9pxPMZwoHtFCS5Nee9a7/Hg/wAW1VT6f98GmfpeF+JXxKvl/msqjzLpNfjq2dpp55RbUUkKG0kYzggEZru04085f9Oltl9YbukNxZbacUlCAvJUpSRsgDnvoQXtK9rSvkHvuGvNzntd35BX3a9Iyd8aVgHPQPbgMn2BrzmULQkJdbcQrZAUl1C0KHLBSsA/VQk9EwfaUD5rH/DTVXeUe4R5V1gwmXEr/J0d3pyneEPvqSS2SOYCRnv6+Ed/OTVHRBkXm4hoJCQA8QQkDAAUBtfXWLAtt2u0lMe3xXZDy1ArcIUGGwo73H3iNkDnxJPIHNATLyYRlruN+m/AZhxoYPLpHXC8oeASn11H9XxnIupb4hQOHpCZbZ/tIfQF5HjkeFW3puxsaftbMBtfSulSn5b+MF+SvG0oDkBuCRyAHjq9ZaXVfmWpMMpTc4aFIaDh2USWSdroVq5HO9J7xwVkCCI6NsWkL9Feanh43WO84VtomPNF2Mo5bcQ2lQGB7E4HL9oZln9Hejf1E39+lfzVUr8a5W2RsSWJUOUwsFPSIcaWhX9ptwbvEKrNGpdVBOwL3ctnhvkKKv8AmPpfXQksxXk70WfQUxM9MEYM+TkjngbVS5CEoShCRhKEpSkdiQAKpnRc2c7qy2PPuy5SnmpkZ511Tz5SlxorBWtWcDKQN5q6OqhBQWovd/UX0rN/FNWroH3q2n5W4/xj1VVqIK/L+otx91JvI/rTVqaB96lp+UuPLH+2PUBKaUpQFS+Uz3bt30U3/EPVsPJbx1R32z7JFYHlLBN7t24+5TfAE/7Q91Vn+S3jqfIPG2cQR8F/roSbnyje93/iML7VVXej/fRpz5y//DO1YnlG97vP3RhcBnmrqqvNIA/nRpzcfbL/ACP/AKZ3soQT7ykRVvWKNJQCfMp7LjmB7Ft1CmcnxKfXVZWhNoXdICLuVi2uOKakqQ4tot7SCEOKWjBACsbX/ar7lxY06LJhymw5HlNLYeQfhIWMHB6+qqUv2lbzYnnNpl2VAKj0ExltSwUckvpQCUq692DyO/AElhp8nui1JStLMxSVAKSpM+SQoEZBBCq5/o70bx6Cbgf/AD5X81VXEvF8gI6KFcp0doEkNMvrDYPWEHKR6q4l3e+T0qbmXO4SG1AhTbj7qkEEY3tpOz/00Bdtl0/ZrEiULYh1KZamnHS6+48VFtJSkgrJ5GtvWn0u84/p3TzjqHEOC3RmnEuIUhYU0noiSlWDvxmtueyhB52nJIm3JJ9kJswEdvTLFXXpBxtemNOFCtoJgMtKI5LbyhST2ggiqz1pY5lsvE2UGlqgXB9yUy+hCi22tw7TjThAwCDnGeII8NNCu96tyFtwLjMjNrUVqQw6Q2VHGVbBynPbihJ6DJAGScDIGTu3k4A31A/KZGW5bLVLSCUxZym3MDOEyGyAT4gDxqvE3e9SZtrfkzJ81UWdDkNtuOPP723kKOw2nIzjPKr1nwYlzhS4MpJVHltKbcAOFDO8KSeRBwR2igKLsLVkfusRi9FSLe+HGluJeUwGnlY6Ja1oIOzncd+N4PAbrPHk80YQCGJhBAIInySCDzBCqri96YvdiecS+w4/E2iGZsdtS2lp5dIE5KVdYO7qJFYkW9X6C2GYdznMMp4NNPr6JPxUKykeAoC0j5PNGgEliaAMkkz5IAA5klVba16asVpZdZhNOpbeeMhfSvuOkrKEoyFLJOMAVSc263q4tramXG4SUqSoBtx95xOSMbmknGf92r1sjy37NZHnErQ45b4inEOJKFpX0SQQpKt9CCnF8V95q5LL7jWL6Mg/gIpShJF/KB/VWT5WX9xFRjTfvgsXztz8B6lKEFvf5VUHlI9343zNv/GlKEkLX7HxFW75O/cuT8dP+NKUBN6pzyh+66/in7BSlCCHj+rq2PJp7hzPn6/uJpShJOhxNDx8KUoQV35T/aln+Vd+wVWPwaUoSWb5Mfa11+MmrGpShBTV692b59Iy/wAQ1Yujve7bPlJ38U7SlASClKUBXGvPdaD9HI/GdrM8n3G//wDD/sepShJtNce4Z+exPtNQnS/visnysj+GcpShBbf9muiX7Tn/ADWR9w0pQHndX9dI+Ov7azbH7s2z5y394UpQk9CUPOlKEEd1p72L38k1+KmqOTwT3ClKEkq8nvvgj/JvfcNXRSlAYN19zbr80kfdrz2PZO/HVSlAbfTHu/avl2/tq++vvP20pQg//9k=;" vertex="1" parent="1">
          <mxGeometry x="720" y="525" width="212.6" height="118.71" as="geometry" />
        </mxCell>
        <mxCell id="tXvfGp_SNmzIa3DF7fdC-8" value="" style="shape=image;verticalLabelPosition=bottom;labelBackgroundColor=default;verticalAlign=top;aspect=fixed;imageAspect=0;image=data:image/jpeg,/9j/4AAQSkZJRgABAQAAAQABAAD/2wBDAAsJCQcJCQcJCQkJCwkJCQkJCQsJCwsMCwsLDA0QDBEODQ4MEhkSJRodJR0ZHxwpKRYlNzU2GioyPi0pMBk7IRP/2wBDAQcICAsJCxULCxUsHRkdLCwsLCwsLCwsLCwsLCwsLCwsLCwsLCwsLCwsLCwsLCwsLCwsLCwsLCwsLCwsLCwsLCz/wAARCACaATkDASIAAhEBAxEB/8QAHAABAAMAAwEBAAAAAAAAAAAAAAEFBwIEBgMI/8QANBAAAQMEAQMCBAQEBwAAAAAAAAECAwQFESEGEhMxIkEHUWGRFTJxgRQWQlIjM2JywfDx/8QAGAEBAQEBAQAAAAAAAAAAAAAAAAIDBAH/xAAjEQEAAgECBgMBAAAAAAAAAAAAAQIRITEDEhNRkdFBofDx/9oADAMBAAIRAxEAPwDWwNDQADQ0AA0NAANDQADQ0AA0NAANDQADQ0AA0NAANDQADQ0AA0NAANDQADQ0AA0NAANDQADQ0AA0NAANDQAkjQ0AAAAAAAAAAAAAAAAAAAAAAAAAAAAAAAAAAAAAAAAAAAAAAAAAAAAkgkCAAAAAAAAAAAAAAAAAAAAAAAAAAAAAAAACMoFK2elvjpZpKe6tjY53VHDLSRyMYmE9PUio49rGd5wi1prtGVkrmpjKomVRqZVEyq+yBXI1FVVREamVVdIiJvKlDVPuCRdu8WyKspUcjlmt/Uro1RMdawvXrynzRxMD6iKJKm11K3G3+H0sr+qeNE8pDI71ZT+133NujpnPrz7Y9fXGPfj0u45Y5WMkjex7HojmPY5HNci+6KmjkUsbo44/xK1ZfTSOc6so2pjKovrfGxfyyt/qb74+ey3ilimjimiejo5WNexzVyjmqmUVDO1cNaX5tJfQAENAAAAAAAAAAkCAAAAAAAAAAAAAD7nFr43Z6XNdjz0qi4/XBmfxarb1T0dnp6aSaK31T6lK18LnNSSViN7cMrm+yp1KiZ3j/TrpcPpOCUU0t9tN4r56q2Wquqqq213RFKqNhVXOajWoiom/HWm03rYay57GplzkanjLlRE+6koqLjHhUyi+y/oYdx201/xGuV4rr5c6tsFIkSoyncidD6hXqyKBsiOY1jUaufTlc/Ncnc4tV3fjPMajiUtZLUW6aeaiRsiqrWOdCs0M8bcr0qvpRyIvv9EwGyqqJnOsZVfGk+pCOY5MtcipvaKipr6ofn7hlnufJp7naEutRR21I2VlckWXunex3aiYqKqZRMqu1xrxnaW/CJblx7nE/G1qXS0sk9bRztRVSJ7oInTRztYqqiO9OP3VANqc9jcdTmtz46lRM/dTl9zC79SfDmOuua1vI77cK+SoqXMWgYyeGnc56qyJ0lRnq6dIuJN/T2niV3uM/HOfWieeSWnp7FUVtIkrnOdA5EVjmxuVcoi+lcfNPrsNxc9jUcrnI1G+VcqIib91XROUwq+2MrnWE+uTA+LccvvMKKWk/FEpLVbKhXojmPlWSrqcPVe2jm5wjU2rtZ15U9tTUMvPble6m5VlVHx21V8troLfSyuibVSQonXNUOTa5yip77xlOn1hoyOaqIqLlF8KmFRf3Qn7ma3e0v4ClNfrDVVbbVHUwQ3i1zzPmgkglckfdi69o5F+vv5xlHd/jb5Xc5+IzHPe5jPw3oa5zla1FZn0oq4A92eO4fcrnX3Pn0NZVTTx0N9lpqRkipiCFr5moxiInjSfY6l8klb8ROAxtkkSN9HcFexHuRjsRTrtqLj/AMKTj1kffL58QqerrKqOzw8gq3z0lJIsDqyofNMje/Kz19DERVRuUyqov9Ow1fKDKGaPo38G5Px2O3VVQtgv8ktJUUVTK+ZlPMzpRJI1dv3aufOlTO9VFHdeFcjkuFz5jeHq+SqlZbbYk1bFBQ0jFwx2KZERXu91z7fXQbDlPBUVtvmgkdcbWiMq2p1VECairWN2rXtTXV/ap5Tgt2gdduR2ChuUlxtFIyGutE8zpHyRQvVrZIOqVEdhqqiJr2X5mhFVvNZzCL0i8YlQJUwR9i90eW0lS5kV0h8dDs9tJlb7OYun/NP0LakpUpVqWsfmCWZ08MaJhIe4iK9rV+SrlyfqVroY6a61FK5M0d8p5nqz+lKqNvTIif7mrn9iyoIqmCkpIKh7ZJYYmxvezOHdPpRfVvxjJtxcY0/fzZz8KJ5sT8fvvd2gAc7rAAAAAAAACSCQIAAAAAAAAAAAbAA8hzC93W1rRQQ8Zfe7bUxTrcG9qSRjVRzUY3LGPanuq5Z8sKeA4/xy5Xrk7rhFYaiyWNyT92KVJmNbFLTOgdHAsqNVyvVVVcNwmfkmF24AYnaG8x+HdyucTrHUXOiq2sZ3KVsvZm7Su7UrJY2P6V2qOarc7+mSy4px/kt15NPy+90b6ONslRVxQzMdHJNO6NYo2Mif/iIxiY2uM4TzlVTWv++QBkvwttd5oLnfJK+219JHJQxsjfWUs0DXuSfOGrI1EVTrMs1/k+I9yqWUFwhpZ571HFXOpahtNGs9vmhjlSbp6cZVMLk2MAYVxb+aOKV91pE4jUV1yqmxU9NLJFIjad7FcnU2bocxY3KqK5Ue38qbTGufGbJyKkh5/FVWi4xyT8dr6eHqpJ0bPP3ETohXpw5V8txk3IAZ18K7fc7fbr2yvoayjfJXQvjbWU8sDntSFEy1JERcHNr7twa53lfwysuPG7tWSXGOS3R92ooKiT/MZJFn8vjC5RNJvOUNCAGT8h5LHyqr4/x51JX2qzXO4RLUVt0gdC+rSF2oYWoqtwrsJnq8qnhE9VjVTXDifMr3dprZcKyz36np8z26FZ5IKiJrWo17UwnlF8qmnIqZwqHrOScbt3JqFlFWOfGsU8c8FRCje9C5undCuTHqTKL+y+2reKPtRRRI970jjZGj5XK+RyNajep7l2qr7qBnLnX+7844bepLNXUlqZFXwU/8RC/vsYkEqd6saxFazrVyIxFd4TPufKyVd847dea3Gqslzms1xv1diSlp3uqonxyyPZMkDsK6F6O/Mi+W/fTwBnjPxLmnIrHX/htbRcesLpqhj7lF2Z66qkx+SNVz0oqJvfhd5dhOrZ5qrhK1tlvFjrqy2tq5prXcrfRpVNfDKqO7cyJtFTz5znKYVNrpoApLFdKa6/xktPZ7hb44nRMZJcKNtI6pRyK5Vib5Vqf8l2ABVXeKVz7LNFG974LpTuXttc5WxPRzHquPCYXZaYJBU2zER2RFMWm3cABKwAAAAAAAAkgkCAAAAAAAAAAAAAAAAAAAAAAAAAAAAAAAAAAAAAAAAAAAAAAAAAAAJIJAgAAAAAAAAAAAAAAAAAAAAAAAAAAAAAAAAAAAAAAAAAAAAAAAAAACSCQIAAAAAAAAAAAAAAAAAAAAAAAAAAAAAAAAAAAAAAAAAAAAAAAAAAAkgAAAAAAAAAAAAAAAAAAAAAAAAAAAAAAAAAAAAAAAAAAAAAAAAAAAAJIJAjQ0AA0NAANDQADQ0AA0NAANDQADQ0AA0NAANDQADQ0AA0NAANDQADQ0AA0NAANDQADQ0AA0NAANDQADQ0AA0NAkD//Z;" vertex="1" parent="1">
          <mxGeometry x="780" y="116.04" width="251.94" height="123.96" as="geometry" />
        </mxCell>
        <mxCell id="tXvfGp_SNmzIa3DF7fdC-9" value="" style="shape=image;verticalLabelPosition=bottom;labelBackgroundColor=default;verticalAlign=top;aspect=fixed;imageAspect=0;image=data:image/jpeg,/9j/4AAQSkZJRgABAQAAAQABAAD/2wBDAAsJCQcJCQcJCQkJCwkJCQkJCQsJCwsMCwsLDA0QDBEODQ4MEhkSJRodJR0ZHxwpKRYlNzU2GioyPi0pMBk7IRP/2wBDAQcICAsJCxULCxUsHRkdLCwsLCwsLCwsLCwsLCwsLCwsLCwsLCwsLCwsLCwsLCwsLCwsLCwsLCwsLCwsLCwsLCz/wAARCAC1AQEDASIAAhEBAxEB/8QAHAABAAICAwEAAAAAAAAAAAAAAAYHBQgBAwQC/8QASxAAAQQBAQQGBwQGBwQLAAAAAQACAwQFEQYSIYEHEzFBUWEUFiJVcaTjFTJSoSMzYpGSsRdUcpSistMkNELBRFNjgoOTwtHS4fD/xAAZAQEBAAMBAAAAAAAAAAAAAAAABAEDBgX/xAAoEQEAAQMDAgQHAAAAAAAAAAAAAQIDBBESIQUxE0Fh4RRRkaGxwfH/2gAMAwEAAhEDEQA/ALaC54InNA4JwTmnNA4JwTmnNA4JwTmnNA4JwTmnNA4JwTmnNA4JwTmnNA4JwTmnNA4JwTmnNA4JwTmnNA4JwTmnNA4JwTmnNA4JwTmnNA4JwTmnNA4JwTmnNA4JwTmnNA4InNEBERAREQEREBERAREQEREBERAREQEREBERAREQEREBERAREQEREBERAREQEREBERAREQEREBERAREQEREBERAREQEREBERAREQEREBERAREQEREBERAREQEUOzXSLstg8hYxtlt+azX3ROakMbo43uAduF0kjePEa6D/6x39Lexv8AVsz/AHet/roLCRYvBZ3G7RY9mRx5l6h0kkLmzsDJY5I9NWuDSR3g9vesogIiiGb6QtlcDflx1k3Z7MIb14pRRvZE5w3gxzpJGje00J017fHgAl6Kvf6W9jv6tmf7vW/11LMBnsdtHQGRoNsNg6+SuW2WNZIJIw0ng1zhpxHYf5IMsiIgIiICIiAiIgIiICIiAiIgIiICIiAiIgIiICIiAnNFi9orn2fgs9c1IMGPtOYQePWFhazTmQg1szl37RzOava6ttZC3Oz+w6VxaP3aLHIiC6uh+yH4nOVC7jBfjnA8GzRBv82lWcqW6HrG7lM9U1/X0IZx8YJt3/1q6UGI2izUGz+HyGUl3S6CPdrxk/rbL/ZjZ49vE+QJ7lrHYsWLc9i1YkdJPYlknmkcdXPkkcXOcfirB6U9oftDKRYWu/WriSTY3TwkvPGjtf7A9n4lyrnj2oC2P6P6XoWyWBYfvWIZLrz4+kSOlb+RAWucUb5pIomDV8r2RsA73OIaAtrqddtOpSqM03KtaCu3TwiYGf8AJB3osPndpMFs5A2fJ2Qx0gPUQRDfsT6dvVxju8SSB58VWl/phvOe5uLxFeOMagPvyPle7wO5CWgfxFBcaKiB0s7ZBwJhxRH4fR5R+Yl1Wew/S8ySZkWbxrIYnuANmg57mx697oZCXEeOj+RQWyi6oJoLMUFiCRksE7GSxSRnVj2PG8HNPgVFJ8nLWvz2hK4s9IkjMe9q1zGu3SNNdOAUWVl0423dGus6KsbFqyJmKfJMEXDXBzWuHEOAcPgRquVZE68pRNV57dytSi62d4aCd1jR957j2NaFhK+YvTZCswta2GZ/V9UBxaCDo7e7dfFR3821YrpornmVNrFuXaZrpjiEjRdcssMEUk00scUMTS+WSV7WRsaOJc9zjoBzVb5zpZxNSSSDC1HX3tJabM7jDW1HexoG+4fwq1MsxFRD+lnbF0hc2HFNYTwYK8pAHhqZdVJcD0s1LU0dbO1GUzI4Nbbql7q7SToOtjfq4DxIcfh4BaSLhrmva17HNcxzQ5rmkFrmkaggjhosFtXtHDsvinZJ8BsPfYiqwQiQRh8rw53tP0OgABPZ3eaDPIqnx3S5JavUKtjDwQQWLMMEs/pp0hZI8MMh34wNBrqeIWT2j6UsPjJJamIibkrTCWun392kxw/C9upf56aDzQWKioo9Le15k3hWxIZrr1fUTEaeG8ZdVN9j+kWrtFYbjb9dlPJPa41zE8ur2S0bzms3/aDtOIBJ107e5BPkUCvZnaiva2zdBka8sGLsUMbjIDThHXX8kIwxjpd4n9EXt14ce/s4/eC2ozeYy+AqbkcdT7Itz5NxjAknu1nMrzGIanSNrzutPeQ7w4BOkXGqIOVBulK76LsrPCHaOyF2pV0B0Ja1xsO/yaH4qcqoemO5+k2dx4P3WWrrxr+ItiZqOTkFTxsfI+ONg3nyOaxgHaXOOgCnHSRhq2GvbPx142xxuwlWBwaAN6WqTE5xI7SRpqVg9jqQyG0+zlYjeab8Uzwewsr62HD9zSrE6Y6xdV2buAfq57lZx85WMkaP8JQRPowtCvtbSYXaC3VuVfiTH1oH72hXLtXnYtncJfyJLevDeopMOnt2pQQwaeA4uPk0rX7ZW22jtJs5Zc4NYzJVWyOcQ1rWSPETi4nhoATqpF0l7Rx5nMNo1JWyY/FB0TXRu1ZNadp1sgI4EDg0fA/iQQpjLd+2yNgfPbuWA1o7XzTzP0HE95JU128xlXZ6jsfgImsM8FS1fvTNA1nsWXsYXa9ug3CG+QCyfRTs76Tcn2gsx6wUS6ChvDg+05vtyDX8AOg83fsrCdJt0W9rMhGCSyjBVpt17AWxiV2nNxQYzYul6ftTs5AWktF6Oy/T8NbWwdfL2VsnPL1MFifq5JOpikl6uIb0j9xpdusHiewKkeiSl1+fvXCPZo46QA+Eth7WN/IOV4OeyNr3vc1rGNL3ueQ1rWgalzieGgQaz5p+1GdydzJXKGQdLPId1no1gthjB0ZCwFvY3s/PtKsHY7ozoTUocjtJDYdNY1fDQc98Ahi/4TPuEP3j26ajQdvHg3PZbpR2Rxz5IapsZKZh3SajQ2vr3/ppCNfiGlRqx0x2SSKmDhaO42bb3nXzDGN/mgz+0fR7sWzDZaxUp+g2KdKxaimjnmcN6GMybsjZXuaQdNDw71RClmf2/wBqdoK8lOxJBWpSEGSvSjcwSgHUCR73OeR5ageXBRMansGpQbG9HjbLdkMB17i5zmWHR690JsSFg/covkZXdbeYO2PIWoyTwGriSP5FWHhqYx2Jw1HQD0SjVgcB+NkbQ48zqqyzrJI8ntNXJdustC4xv7L3AuPHu9oKDMsRdpjV0XQNJu1R6fv3WZhLkN7GUZ4nFzer6kl3Al0X6N3DkvReu1MfWmt2nhkMQBJ7S5x4BrR4nsCi+wVyOXHWqWp6ypOXkEaAMm1cNOYOqj+0mYGZvyQMe77JxhLpHNJHXPB3C4ebj7LPLUqmK9tES0U9Nm7m12e1MTrM+nl9XZcy9i9Mbtg7upc2lB/wxMB03z/+4nyCz+zFOaZxyc5cIWhza28eD3Hg6Tj3DsChWNiyOayEVWAwsLzq8ljS2CuzQHQEdw4N81Ndusi7B7JX+oc4SzxxYqu4EBzeuBa53Dv3Q7mvOs4e+74tznT8vS6vdpxbcY1viZ+0e6sNvts589clx1GZzcLUlLGhhI9NlYdDNJ+zr9wc+0+zxsb0f29pYvtG5O+pit9zI3RtDp7Lmndd1W97IaDwJIPEaaHtEFU1xnSVtXiqFLHV48Y6CnE2CEzVnmTcbwAcWSNH5L13JJ/a6Jtk5K7o6s+RgsbujJnyslbveL2FgBHjoQqWyVCzishfx1kAT055IJN3i1xadN5vke0fFTb+lrbP/qMR/dpv9ZQnJZC5lb1zI3Hh9m3KZZXNaGt10AAa0dwGgHwQXb0V5aa/s/LSmdvPxNj0eJxOp9HkHWMB+B3gPIBYPpiu8NnccCf+lXZBrwP3YmHT+Jd3Q5FIKu0sx16t9ilE3w3mMkc7+YUU6ULnpW1luEO1bQq1KjdDqAdzr3fm/Q/BBDqtW1ds16lWJ81mzIyGCNn3nvedABrwVvYvohx4gjfmMjZfZc3V8dDq2Qxkj7ofI1zjp46D4KPdE2Oba2gs3ntBbjKT3x6jXdnsHqmkct9Xqg12232PGylqj1FiSxRvMlMDpg0SsfDu77H7nA9oIOg7fLjhNnpJYs9s8+IkSDK0N0jt4zsaRz7FYXTHZDrOzdMdsVe5ad8Jnxxj/IVEdgaXp21uAjLQWQzvtv17AK8bpR+YCDYs16x39YYvalbO72Ge1K3TSQ8PvDQaHy8lyyCvG4OjhiY4NLA5jGNIaXF5bqB2a8fiuxEBERA7lr50m3fS9rb7A7VlGCrSb5FrOtcORcQtg/BasZu4chmMze11Fq/amaR2bjpHFv5aIJl0TUuv2is2yAW0cfM4E9okmc2JunLeU76U6psbKTShmpp3qlgn8LXEwE/4gsR0PUtzHZ3IObxs3IajCRx3a8e+dPLV/wCSme2NX0vZbaaHTU/Z084H7VcdeP8AKg1lXrxtC3lL9HHVG71i5OyCMdw3jxc7yA1J8gvIrh6J9mzHFY2ktM9uYPq40OHZGDpLMPifZHwPigsjEYynhcZQxtbQQU4Wx7xAaXuHtPlfpw1cdSfitZc1cORy+YvE6+l37dhvk18ji0chotktpbgx+z+0FzXR0OOtbmp0/SPYY2fmQtXkF1dEFLqsTmb5bo63ejrtd3llePe/m8rHdLG0dps9fZyrK5kPUstZLcOhlc86xwuI46ADeI79R4KbbAUhS2SwDNAHWIH3Xkd/pMjpWk8i0clVXSlSs19qrVmRrupyFarNXeQd0iKJsDmg9moLePxHigwmyezku0+Xhx4lMMDI32bcwG85kDCAQwHhvEkAfHXjpobyo7B7EUGsDMRXne3tkvb1l7j4kSEt/c0KitmNpL2y+RN+rHHMJIXV7EEpcGyxOIdwc3iCCAQf/dT2z0xzOhIqYKOOcjg+zbdLE0/2GRtJ/iCD76WH4ilRwWIp1akEsliS+5taGOIxwxsMLeDAODiT/B5KutmqX2htBgKegLZshW6wEagxseJH/kCvNlcjlMrenv5KSSS1Z3Xlz27oDCPYEbewNA+7opT0XV2zbW1HuGvotO7ZGvcdzqQf8SDYFVztjTMWcqWOAiylR9ZxJ0b1zGlg1+HsHkrGWB2qx82QxUja8LJLNZ7bdYueGFj4/aJGo04jUdoTbFXErsDI+HvxV8+FcYq/PjcftHNEXtltsq42HT73WPL3PIHiG9nm4Lw2XCvHHSGhdG4PtFvHfskbu4NO3c+6PPXxXo61wlntsY81oHGejA1r3/7VaG91gAB13dCSfEAeSl2x2Ehk6vKT48MLf1L7plksPk75GMka1jR5hpJ8VtuY+2OXS1dQt2ZqvT3n+Qy+x2HsYvHultgtt3XNmfEdNYIwPYjPn3u+Pko50vdZ9hYnTXc+1m7+nZr6PLu6/mrJWC2swQ2iwd/GtLW2HBs9Nz+DW2YvaZqfA8Wn4rTEREaQ5K/fryLk3a+8tccTDUsZXEQXNfRJ79OG1o4t/Qvma1/tDs4E8VsUNitiAAPsHH8OHGIk8PEk6rW+1Vt0bM9S3DJBZrvMc0UoLXscPH/kprjelLa7H1oq0jaN1sTGsjkuRymbdaNAHPie3X4karLStp+x2wkTHySYTFsjja58j3xhrGMaNS5zidAB3qMus9BYcWFuG1B3dW1rJbr5Pazd/NVtntuNqNoozXuWGQ0ydXVaTTFC/Q6jrCSXu08C4jyUh2B2Ds5OevmMxA6PFwubLWglaWuvPB1aS08erHafHs7OKC5cfRxePrRwY2tXr1P1rGVmNYx2+Ad/h2k+K1lz9z7Qzecu6gizkLcrNOzcMhDfy0WyWeutxuEzd4ndNbH2pIz/ANp1ZawczoFq0gu3ohpGLC5a84aG5kBEw/ijrxjiObnDkrLUZ2Dpeg7J7PRFpDpaxuP1Gh1svdMPyIUmOg1JOgHEk9gA4oNe+k276XtbkIwSWUYKtNvHhqIxK7Tm4rMdEFLrcxmL5HCpQbA3XufZkB1HJh/eoHmrhyGXzF4nX0u/anGnEbr5XFoHLRXF0R0jDgchccNDeyLg3h2x12NYPzLkFjIiICIiDggEEHTQggjxBUSd0c9H7i4/ZAGpJ9m3cAGvgBKpciDx43GY3EVIaOOrsr1Yt4sjYXHi46lznPJcSe8kr1SMjlZJFI1r45GOjkY4atc1w0LSPAr6RBEf6OOj/eLvsjtOunpd3d7dewSqU169erBBWrRMhggjbFDFGA1jGNGga0DuXaiDy36FHJ1LNC9C2epZaGTROLmhwDg4cWkEaEAjj3KNjo46PwQfsjXQg8bd0jh4jrVLkQfEccUMcUUTWsiiY2ONjRo1jGjdDQPALxZXDYfN1jUylSKzDrvMD9Q+N2mm9G9pDgfgVkEQV7J0TbHOfvMnysbfwNsQkDyBdET+ay2M6PdisXIyaPH+kzMILX5B5sbpHEERnSPX/uqWIgwOX2R2Vzs8NnJ49ss8UQgZIyWaF3Vgkhrupc3XTu1XOG2S2XwFia1i6AgsSxGF8jpp5XdWSHFretedNSBrp4LOogLqnfDHDPJMdImRvdIf2AOIXaumeCOw1jJN7cbLHKWg6B5jO8A7y10PJB4MbB1MlgSxMZNMG3WhrQOrbKNwwjQdjd0D8+9ZVdboY3SxTcd+NsjGkHhuyaEg/uB5LsWZnXlmZ1ERFhhh8xszs5ngPtShDNI1u6ydusdhg8BLGQ7TyJIUWd0TbGl5cJsq1uv3BYhIHwJi1Vgogi2K2B2LxMjZocc2edpBbLfebDmkcQWsd+jB891Snh5IiDzXqVLI1LNG7E2arZZ1c0bi4BzdQe1pB8NOKjLejfo/a5rvsnXQg6Ot3CDodeIMql6IPmNkcbI442tZHGxrGNYAGta0aBoA4aBcuDXBzXAFrgWkHsIPAgrlEEQd0b7AOc532URvEnRtu4ANfACTRSXH4/H4upXoUIGQVK7S2KJm8QNSXEkuJJJJJJJXqRAREQEREBERAREQEREBERAREQEREBERAREQEREBERAREQEREBERAREQEREBERAREQEROaAic05oCJzTmgInNOaAic05oCJzTmgInNOaAic05oCJzTmgInNOaAic05oCJzTmgInNOaAic05oCJzTmgInNOaAic0QEREBERAREQEREBERAREQEREBERAREQEREBERAREQEREBERAREQEREBERBGPWvs/2DuB/3jx/8NPWse7/AJj6aIgetY93/MfTT1rHu/5j6aIgetY93/MfTXPrWPd/zH00RBx61j3f8x9NPWse7/mPpoiB61j3f8x9NPWse7/mPpoiB61j3f8AMfTT1rHu/wCY+miIOfWse7/mPprj1rHu/wCY+miIHrWPd/zH009ax7v+Y+miIHrWPd/zH009ax7v+Y+miIHrWPd/zH01z61j3f8AMfTREHHrWPd/zH009ax7v+Y+miIHrWPd/wAx9NPWse7/AJj6aIgetY93/MfTT1rHu/5j6aIgetY93/MfTT1rHu/5j6aIgetY93/MfTT1rHu/5j6aIgetY93/ADH009ax7v8AmPpoiD49a5P6kz/zj/8AFERB/9k=;" vertex="1" parent="1">
          <mxGeometry x="520" y="116.04" width="176.01" height="123.96" as="geometry" />
        </mxCell>
        <mxCell id="tXvfGp_SNmzIa3DF7fdC-10" value="" style="shape=image;verticalLabelPosition=bottom;labelBackgroundColor=default;verticalAlign=top;aspect=fixed;imageAspect=0;image=data:image/jpeg,/9j/4AAQSkZJRgABAQAAAQABAAD/2wBDAAsJCQcJCQcJCQkJCwkJCQkJCQsJCwsMCwsLDA0QDBEODQ4MEhkSJRodJR0ZHxwpKRYlNzU2GioyPi0pMBk7IRP/2wBDAQcICAsJCxULCxUsHRkdLCwsLCwsLCwsLCwsLCwsLCwsLCwsLCwsLCwsLCwsLCwsLCwsLCwsLCwsLCwsLCwsLCz/wAARCAC0ALADASIAAhEBAxEB/8QAGwABAAEFAQAAAAAAAAAAAAAAAAYCAwQFBwH/xABOEAACAQMBBQUEAwsHCgcAAAABAgMABBEFBhITITFBUWFxkRQigaEyNUIVFiNSVXJ0lLGz0Qc0U1SSssEzRGJjc4LS0+HwFyVDVmR1ov/EABsBAAIDAQEBAAAAAAAAAAAAAAAFAQMEBgIH/8QAMREAAgICAAQCCgEFAQEAAAAAAQIAAwQRBRIhMRNRFBUiQWFxkaHR8DIzUoGxwWLh/9oADAMBAAIRAxEAPwDrfrT1pSiEetPWlKIR609aUohHrT1pSiEetPWlKIRUT1nbOHStQm06HT5buWBUM7CYRKrOocKoCMTyIyeXWpYelcm2gz98+0PgsJ9LeI1twqVut5X7TBxDIfHp507zef8AiFN+QZv1o/8AIq5D/KDEZ7eO60ma3hllSNpRccQpvEKG3DGuQM8+dQyOR2Njk54kTM/TmQFOfnWPM7PBZsxyTeR8+nSQjspy/DscKdCI6+KZBcK2v3f4ndKetKVzM6uPWnrSlEI9aetKUQj1p60pRCKUpRCKUpRCKUpRCa7Vda0rRo4pL+cx8ZmWFERpJJCuC26qjOByyfHx56f7+9lP6e5/Vpa0u3wB1HZ4EZBiuuR6fTSosZAFnO4mY5liHLqCVGT605xcCu6oOxiLN4k+Pb4arudD+/vZT+nuf1WWn397Kf09z+qy1zuYqy3qbi/g41KnAz7y71UW5VIbMBVPFd1JIGftNn5Vq9VVb1s/vSZPXNvJzco/RudH+/vZT+nuf1aWoFq2pWN5rerX0LSG2uhGI2KFW92KNDlTz7DVkyYXe3E/nPA6dm9u5q0ioLy7O6vuxBgMDAOATirqcFKHDIZnv4i2ShR10P38wLmwUw4eT8Cu4mQehAHP0qzLNbMltFCWO7cxsd4dMyDt+NZiOG9kyifhkLtyHLAB5etY07CSG0k3VUm7jX3R2CTH+FbX3yn98pho5fEXoe/n8/h853SlKVxM76KUqP7Va22jadmAj268Y29mMAlTj3pcH8XljxIr0il2CjuZ5dwilm7CSClQbQNsZXmi07XNxJpCEt71QEjlY8gswHugnoCMDswO2c17tpeluVxPFVyXLzIdiKUpVUtilKUQilKfxFEJiz6jpdq/Cub+yglwDuT3EMb4PQ7rsDVr7taB+VtM/XLf/jrkmoLFJqe0c9wGkKaheZOTnAlcY6+QFWjb2QZl4XNYuL9Jvo8/HrTuvhXOobm7xBbxgVuU5e0ku217p91f6C9td206RRXIka3mjlVCzpjeKE4qNlYiJxx4hxJllzvLywVOOvhVh4bcyWW4pVJ+bDJyRyIq4YbECU8I4jkEZ95upIHLn401x6TSnh99RNl3rfYLeoJ+XnK5WiC3riaMmWNQFDAnKru9hqiAxGKzJljUxMzEMwBJO8Mcz40kt7QLdBIyHhQNnebGSN4YyaohgtTFbGSMs8zMoO8w5jePYfCr/a5vd+mZ/Y8Pue/kPL8S/iIrjjxfzjj/AEl/Gzu9atK8Ru7s76BWj3QxIwTgDkTVRhsQM8I443A+k30s4z16VbS3gNzcIVJjjQMBk9cA+dB3sa1BOTTbJ7eQ8xL6cJDa/h4jwUKfSX3sgDPXwqxNw1itI1lRyLpHO6RyXfySefZmriwWLcDER/DKXXLNyAAPPn41Ynit+DFJEhXelKHJJ5cx2k91Q++U9v3Umnl8QdT38h8f/s7R92tA/K2mfrlv/wAdPuzoH5W0z9ct/wDjrj5t7FTKvCOYohIx3m5g73Tn15UFvZMyIIjl4jKDk8lyB39aT+qP/UeevB/YZ2xJI5UWSJ0eNwGR42DIyntVl5VzPa65a72kaAn8FptrFGo7OJIolY+fvAf7tb/+T1mbQrhSSVj1K6SME8lUpG+B4ZJPxqLa6pj2m2gVvpO8Ei+KmKMiqMCoLlFT7pp4naTh8w98180KTxsjDr9EnsNdA2L1eXUdOktbpy15pjrbyMxy0kJB4Tse/kVP5ue2oHVzTdT1PRb+8urG3hl9pgSFxcFuHyIbewrKcjn29tN+I43jp7I6xDwjL8Cwq50s7DSua/fptbnPs2lEfi8OX9vGrOs9vnV0TVtNMKMcGezYui+JjfnjyY+Vc++Beg2VnUpxHGsOlaTylKVhm+Kd3nWHqd6NO0/UL4rv+y20syoejMq+6p8CcZrlD6hr98xurjV75XlO+Et5pIokBPIIiMAPT161sxsR8nfL7phy82vEAL++Wr1Ge+2nRRln1C9UA8ufGeqTHIZJG3eRtuED/pZNWjZks7m4mLuSzsT7zEnJLHrT2M/1mf1rq60ZFCkdvjOMutrscsG7/A/D8Sl1ZJNLVhhlG6fMACrjRSlbkBeclwki8x9EFDn5GqDYqSCZpSR0JwTXvsZ/rM/r/wBakK3Xp9/hPJdOmm7fA+e5VKjgag5HuvEm6fzVwapgR2hsCByR3dvIhhXhssjBuJiO4nI+dBZbowLiYDuGAPlU6be9feAavk5eb7Hy1KzFLuYxz9rE3X7G9mqUz7ZegDnwgPiQBT2M/wBZn9a89hAO8J5Q3eMZ9aCrdND7yA9fXb9/gfh+JdjilU2WV/yUTK/PoxCjA9Kxp0eO2gVxg8dj17yxq77Gf6zP614bENjenlbHTewcetDKxGgPvJSxAwYt9j8fzLzxyl7oheUlusaeLYf+NFjkEkDEcktjG352Qatexn+sTev/AFp7GT1uJiO4nlU6P9v3le07c/2Mn38nn1Hd/wD2lz+6hrS7btpqanY3ttdW8k7xG2vYIXDyKEJ3Hbdz34x4D4RxbQhOF7RccLJbhByse8e3dHLNXI7e3hwUQA955n4E0trwHW/xubUc3cVpajwQu5d7KV4zBEdz0VSx+FV2tntJexQz2ujXMsMyh4pQUWN1PIMC7DlTSy5Kv5nURU41t+/DG9SmqYbe51W9t9JsRvTTMGuJMZSCBT7zuR2D5nA7eW5tdjtqr0j2yS2023J98IwnuCp7AsZ3fV/hU60bQ9L0O3MFlGd6QgzzykNPOw5AyPgdOwAADu71OXxNFUrV1Me4PB35w93QCbSlKVzM66avaCMy6HrqDr9zrtv7MZf/AArlFqc28GPxMehIrs1xCtxBc27fRnhlhbykUqf21xezDLE0TZDwySROD2FT0p/wdurLOa4+vsK0yKUpXRTkYpSlEIpQkAZJwO80BB6HPkaIRSlKIRSlKIRSlKIRSleMyorMxwqjLHwogBvoJR7NNqN3p+kwEiS+mVXYf+nCMs7nyAY/Ad9dlghht4YLeFQsUESQxKOioihVHoKhGwelMwutfuUw92Gt7AH7Nup9+QfnEADwX/Sqd1yHEcjxrdDsJ33C8X0ekb7mKUpS2NYpSlEIrkuuWh0/aHVoMERXbi+g5YBE2XbHkd4fCutVDdutMeazttWgXM2msRNgc2tXIyT+aefkTW/Au8G4E9jF3Ecfx6Co7yGUqlHWRVdTyYZH8Kqrsu8+ekEHRilKty3FvBjiSAHIGBzPPvAqCQO8lVLHSjc3djJ7Bo+t6xBbxT31tNBbwmaPipaRSAFrgp/j4d2Qci7vLTWtBtdX9laC7huYbGSZljRbx+FmRo+H1UHODjsIrVWV/fafK01pMY2ZdxwQGR17nVuRqq+1PUNRMZupd5YgRFGirHHHnruooxS1sWw5Hi76b+3lqN1zahiGkjrrXw357mHSlKZxPFKUohFKUohFXdN0ybaDUU06EstnAVm1KdeixZxw1P4zcwvxP2ediCG+1S7TTNMQPcyc5pTnhW8WcM8jDoB8+g5nl1TRNGstEsY7O2yxzxLiZgBJcTEYMjY9AOwDHZzT8QzRUvhoepnRcJ4cbGF1g6CZ8MUUEUMMKKkUMaRRIgwqIg3VUDuFXKUrlp2MUpSiEUpSiEVS6JIjxuqsjqyOrAFWVhgqQew1VSiE5Fr+jXmz13uQYbTbqTNpLLkrGT1hlbsK/MDPUHF2PZzbSZY3is7ExyKGSQXcDRspGQylGOQfKuo3dpaXtvLa3UKTQTLuyRyDII6gjtBHUEdKiH3I2q2ad30CYahphYu2nXbDix568JiQD8CPEN1pvVn28gQNojzia3htJcuy7B8prbfYbaO4x7dqVpaxnqtqrzSeWSEX9tSfSdkdn9JKyrCbq6A/nF6VlcEjB3EwEX4LnxrEttuNH3xBqsF5pd0CQ0d1E7ID4Mqh/VBW+t9W0a7Cm21Czl3uipPGX+Kk73yrNfdkv/U3NVFGNX/TAkG2h0R9Mna4gUmwnf3CMngOx/yTeH4p+HUc9DXYpIopo3jlRZIpFKujgMrqeoIPKoVquyM6F5tK/CRnmbWRsSJ/snY4I8Cc+Jptg8SUgV3HR8/zOf4jwhlY2442PLy+UiVKuywXMDmOeCaFx1WaN4288MBVlmRfpOg82UU8DAjYM5zlO9a6z2lY8l9ZxndMm856KgySfCs+z0najVN32PTXghb/ADnUMwx4PaA43z8ENU2ZFdY2xmqrDvtOlWY7uka7zsFXvPb5DrV/TNK1jaF92wQ2+n727NfzKdwgdVhH2j4A47yOhlmmbB6fCyXGsTtqM4weEQUtFPcUzvN8TjwqYokcaJGiKiIoVFRQqqo5AKByxSTJ4rsctP1nR4fBQhD3dT5TXaPoum6Jai2s4zliGnmkw007gY35GA9B0HYK2dKUhJLHZnSKoUaEUpSokxSlKIRSlKIRSlOVEIpSlEJYuLWzu04d1bwTx/iTxpIvo4NaK42J2RuMn7niFjzzayyxAeSq278qklK9rYy/xOp4ZFb+Q3IedgdJT+b6jrMGOY4dxGQPWPPzrz7yD/7i13Hdx1/hUxpVnpFnnK/R6/KQ47A6bLg3Wq61cEdOJPFy8t6Mn51kQbCbJRHL21xcH/5N1Mw+KoVHyqU0oORaenMYDHqHXlmDZ6To2ngexafaW5H2oYY1c+b43vnWdTlSqSSeplwAHQRSlKiTFKUohFKUohFKUohFKpaSNMb7qv57Kv7a9DBgCpyD2qQR6iiRsdpzzXtX1aHWL3g3c0aWkipDGjsIgFRWO8g5HPPOQa6EhyqnvUH1Ga5dtF9b6z/tj+7WuoR/Qj/MT9gpvxCtVppKjXT8RDwux3yLwx3o/wDTK6U9aoMsKtutIgbuLqD6E0oj4kDvK6U9aUSYpSvM9vZ30QntKoWWJjhZEY9yspPoDVdEgEHtIHtTqepw6o0EF3PDHBDC6LC7IC7AsWYDqfP/AB5zOwlknsrCeQgyTWtvK5AwCzxqxwKgG1v1zdfo9v8A3Knml/Vmk/oNp+6Wm+YirjVEDrEWBY7Zl4Y9Af8AszKUqkuoKqWAZs7oJALY64FKI+lVKV5miE9pVCyRMcK6Me5WUn0BquiQCD2ilKpDoxYKwJU4bBB3T3HFEnc5XBpeuaiDPDZ3M6vz40mAH8Q8zDPwzTGt6NMpIu7KU/R6hHxzxyyjeXOuqgAAAAYHIDuFWLuztb6CW2uYw8Ug5g9VPYynsI7DTwcWLHToOWc2eBhV5q7Dzef71nKL65lvZrq6mCiWb35NwELvBQuQCT3V1eW4gtLVrmdwkMMKu7HsGByA7z0Fcnvrd7Oe9tXOWt5JYi3426eTfHrUu2xunWDSrNThZAbmUd+4FRAfUn4VqzaRe1Nadjv6aEw8OyGxlvtf+Q19dmafVdotS1KRkieS3tWbcjghJDyZ5DiMnMk9w5efU4y6BtBInEGmXG6Rkb/DVz/uOwb5VJNj9Lh4L6rMitNI8kVqWGeFGh3GZfFjnn3Dx5y/FUXZ64reDjqNCaaOGPmoL8lzs9py2z1XWdHmMatKojIEtpdB9wjuKNzHgRXQ9L1K21S1S5gyOe5LGx9+KQAEo2Pke2sLaPS4b+wnmCKLq0ieaGT7RVBvNGT3EZx4/OMbIXTw6obfJ4d5BICOziRDiK3pvD414tFebQ1yjTL3nug28PyVx3bmRu0l+s6vBpFsJGXiTylltoc432HVmP4o7f8ArXP7i91rWrjcZri4kbLJbwK3DRenuxr7oHifWsjaa6kudXvRzK2xW1hX8wc/Vif+xU60bS4NKs4oUVTOyq91L9qWUjnk9w6Af9n0nh4FK2EbdvtIs8XieQ1QbVa/ec9k0PX7dDM+nXCqo3i0fDdl8cRMW+VbXZ/aDUY7uzsbiRrm3uZUgTiEtLEzcgVc8yO8H5Y5z/FYi6bpcd016lnbrdHOZlRQ+SME57z2mqX4kLkK3ID5al9fCGx7FfHsI89++QLa365uf0e3/uVO9MIGmaUewWFoST0A4S9agm1n11cj/UWw/wDxWNea3qN3bW1lvcG0gghg4URI4ojULmVup6dOnh21tfFfJx6lX3Dr9IvrzUw8q92GyT0+slGr7WW1tvwaduXE4yrTHnbxnp7uPpH5eJ6VE4Ida1y9LRNLPchlL3DsVS355BLjkMdQB8BWw2f0CLVt+4uLhVt4X3Gghb8Oxxn3z9lT2YyT4Yqf21ta2kKQW0McUKD3UjAAHj595qiy6nBBrpG395M01Y+RxIi29tJ7gP3/AHNfrGrw6Pao7/hbmQFII8432UDLtjoo7fPHbUAnvdb1qfcZri5kb3lt4FbhovTIjX3QPE+tZG0l1JdavfZOVtm9liUnkoiGD6nJrfaTrGyulWkVvHLKZCA1zL7NLvTS45sTjp3DsFWU1ei0ixU5nb7Sm+/03Iap7OStfj3kak0TX7ZOM+nXKKvvFo9x2Ud5ETFvlWx0fai9s3jivpHuLMkAs5LzQjpvK3UgdoPw7jJPvs2d/ppv1eX+FRPaCfRLu4jutNYiSXeF0hieNS3IiQZGMno3r5212PlHw8mrXx0ZTbXXhDxsS7ZHcbHWT6+m/wDLNQuIJP8AMLiaGSM/6osrqR8q5lp+oXmmzST2jhZJIWiYsN4HeIO8VPIkdmc1KdCunn2a1y3ckmzgvY489kTwGRR8CSBUX0uy+6OoWNnkhJZMykHBEUal3x4kDA8684VS0ralnUA9flPfEL3yGoeroSOnznWapZkRWZ2CoqlnZiAqqBkkk8sVAbXbDVoI1SeKC53RgSPvRyH84p7p9KwtU2j1PUo+DI0cFsxG9FBvDiHsDsxLHy5eVYF4TeW0dAecZvxzGCcy7J8pi30h1PVLp4QT7beBIBjmVdxGnLywakO2sDK+lTj6HDmtyewFSrjPnz9KubMaBPHLHqd9G0bKD7HBIMOCwwZZFPQ45KPHPlJNU0+DU7Oa0lJXew8TgZMcq/RcD9vga035ldeRWF6qnT69PtMmNw+y3FsZ+jP1H+Ov3mp2Qu4ptM9l3hxrOSRWXtMcrmRWHhzI+FSSuVOmr6DfDJe3uUyEdeccyH8Unkynu/YRW6XbTUQgDWdq0gGN4NKq+ZTJ/bVeTw97XNtGiG6yzD4rXTWKcgFWXp2kq1q7istNvpnIy0LwxDteWRSqqP2nwFQfZSF5datmUe7bQXEznsAKcEepb5Vh3d/q2t3USSb88xJW3trdcKmeu4mfUk/HAqdbPaN9ybZzKVa8ud1rhl5qgX6MSHuHPPeT6WMgwcZkY+00rV24lmLYg0iSE6/FJb6zqYI5m5FymehEmJR/Cuk2d1De21vdQtmOdFcd4Pap8Qcg+VaXaXQ31KJLm1UG9t1K7p5ceLmdzJ5ZHVfPHbyh+n6vqujySxxEhd88a1uUbdDjkSVOGB8sfGgoM/HXkPtL7pC2nhmU/iD2H67nUqVA5dtNTdCsVrbRORjfJkkx4qpwPXNY2gy65faxBcJNcyqkga+ld2MQiwco32ef2QB6YrH6stVGewhQIw9cUvYtdQLEyjaz66uf9hbf3K3Nrsrp8+kQsrv7bcwQ3K3Dk4R2QMIwg5bnPB7e3PKtNtb9c3X6Pbfu6nml/Vmk/oNp+6WtmTdZVjUms6mDEx678y8WDff/AHOb21xqWg6gx3Sk8LcO4hYnclj67pPceqn4+fSbC/tdRtYrq2bKOMMp+lG4+kjjvH/fWtdr+iR6rDxIgq30KngueQkXrwnPd3HsPnzhWl6nd6HeSF1cR73DvrduRIQ4JwejL2enbyixV4jXzp0sHcef77vpCt34Vd4VnWtux8v33/WU69DJBq+rKw5tcPMvisv4QY9a29rsiby3t7mDVY2injWRD7K3b1B/C9R0PlW32k0VtTiivLMA3cMeNzpx4T7wUZ+0Ozzx5RPTtZ1TR3kihI3A54ttcK26H7fd5Mp761V3WZGOvo7aYdx0mO6inGym9JXaN2I3N395E/5Uj/VW/wCbT7yJ/wApx/qrf82rM22mpOhWG0tonIxvs0kmPFVOB65rB0UaxqOsW91HJM7xzpJeXLMdxYgfeRj05jkF8ewDl4Hpyoz2uFA+Ans+rmda6ayxPxIkog0ZNG0XXo+OZpZ7S6klkKbi+7Ayqqrk8h59vpGdlPru1/R7r+5U71T6s1b9AvP3TVBNlPru1/R7r+4Kz4tjWY9zudk/ia8ypasrHRBoD8yYS7M7OTMWNiiEnJ4DyxD+zGwX5VetNE0SxcSW1lEso6SPvSSDyaQkj4UpSk32leUsdfMx4uNSrlgg38hNlSlKomqWbi2tbqMxXMMU0Z+zKgYZ7xntrVHZXZpm3vYyO3Cz3AX0D0pV1dtidEYj/MzXUVWHbqD8xNhZ6fp1ipWztYYQeTGNQGb85j7x9ay6UqnmLHbHZl6qqDSjQisG80vStQwby0hlYYAdhiQDuDrhvnSlSrMpBU6kOiuumGxMJdltm0be9i3sdkk07r/ZZ8VtoYYLdFigijiiQYVIlVEHkF5UpVlltln82J+ZlVNNdY2igfITDvdG0jUZIpry2WWSMBQ2867y5zuvuEZHgf8AGs9QqgKoAVcBQBgAAYAAFKV4LsQAT0E9qiqxYDqe8qrW3WiaNeXKXdzaJJOu77xLgPufR4iqQpx4g0pUo7IdqdQtRXGmG5sqwbzStKvyDd2kMrdA5BWQDuDphvnSlQrMh2p0Z6dFccrDYmEmyuzSNv8AsZcg5Akmndf7LPittDDBBGsUEccUSDCpEoRB5BeVKV7stssPtsT8zKqaa6xtFA+QlxlVgysAVYFWBGQQeRBBrX2Wi6Rp0ss1nbLHLINxm3nYhCc7qb5OB4ClK8h2CkA957dFZlJHUT//2Q==;" vertex="1" parent="1">
          <mxGeometry x="1113.81" y="320" width="117.33" height="120" as="geometry" />
        </mxCell>
        <mxCell id="tXvfGp_SNmzIa3DF7fdC-12" value="" style="endArrow=classic;html=1;rounded=0;entryX=0;entryY=0.5;entryDx=0;entryDy=0;" edge="1" parent="1" target="tXvfGp_SNmzIa3DF7fdC-2">
          <mxGeometry width="50" height="50" relative="1" as="geometry">
            <mxPoint x="220.74" y="180" as="sourcePoint" />
            <mxPoint x="270.74" y="130" as="targetPoint" />
          </mxGeometry>
        </mxCell>
        <mxCell id="tXvfGp_SNmzIa3DF7fdC-13" value="" style="endArrow=classic;html=1;rounded=0;" edge="1" parent="1">
          <mxGeometry width="50" height="50" relative="1" as="geometry">
            <mxPoint x="440" y="177" as="sourcePoint" />
            <mxPoint x="520" y="177" as="targetPoint" />
          </mxGeometry>
        </mxCell>
        <mxCell id="tXvfGp_SNmzIa3DF7fdC-14" value="" style="endArrow=classic;html=1;rounded=0;" edge="1" parent="1">
          <mxGeometry width="50" height="50" relative="1" as="geometry">
            <mxPoint x="1033.22" y="177.6" as="sourcePoint" />
            <mxPoint x="1113.21" y="177.31" as="targetPoint" />
          </mxGeometry>
        </mxCell>
        <mxCell id="tXvfGp_SNmzIa3DF7fdC-16" value="" style="endArrow=classic;html=1;rounded=0;" edge="1" parent="1">
          <mxGeometry width="50" height="50" relative="1" as="geometry">
            <mxPoint x="700.01" y="179.57999999999998" as="sourcePoint" />
            <mxPoint x="780" y="179.29" as="targetPoint" />
          </mxGeometry>
        </mxCell>
        <mxCell id="tXvfGp_SNmzIa3DF7fdC-17" value="" style="endArrow=classic;html=1;rounded=0;" edge="1" parent="1">
          <mxGeometry width="50" height="50" relative="1" as="geometry">
            <mxPoint x="1170.01" y="240" as="sourcePoint" />
            <mxPoint x="1170" y="320" as="targetPoint" />
          </mxGeometry>
        </mxCell>
        <mxCell id="tXvfGp_SNmzIa3DF7fdC-19" value="" style="endArrow=classic;html=1;rounded=0;" edge="1" parent="1">
          <mxGeometry width="50" height="50" relative="1" as="geometry">
            <mxPoint x="1169.25" y="440" as="sourcePoint" />
            <mxPoint x="1169.24" y="520" as="targetPoint" />
          </mxGeometry>
        </mxCell>
        <mxCell id="tXvfGp_SNmzIa3DF7fdC-20" value="" style="endArrow=classic;html=1;rounded=0;exitX=0;exitY=0.5;exitDx=0;exitDy=0;entryX=1;entryY=0.5;entryDx=0;entryDy=0;" edge="1" parent="1" source="tXvfGp_SNmzIa3DF7fdC-6" target="tXvfGp_SNmzIa3DF7fdC-7">
          <mxGeometry width="50" height="50" relative="1" as="geometry">
            <mxPoint x="760" y="510" as="sourcePoint" />
            <mxPoint x="810" y="460" as="targetPoint" />
          </mxGeometry>
        </mxCell>
        <mxCell id="tXvfGp_SNmzIa3DF7fdC-23" value="" style="endArrow=classic;html=1;rounded=0;exitX=0.5;exitY=1;exitDx=0;exitDy=0;entryX=0.5;entryY=0;entryDx=0;entryDy=0;" edge="1" parent="1" source="tXvfGp_SNmzIa3DF7fdC-7" target="tXvfGp_SNmzIa3DF7fdC-3">
          <mxGeometry width="50" height="50" relative="1" as="geometry">
            <mxPoint x="750" y="440" as="sourcePoint" />
            <mxPoint x="826" y="710" as="targetPoint" />
          </mxGeometry>
        </mxCell>
        <mxCell id="tXvfGp_SNmzIa3DF7fdC-24" value="" style="endArrow=classic;html=1;rounded=0;exitX=1;exitY=0.5;exitDx=0;exitDy=0;entryX=0;entryY=0.5;entryDx=0;entryDy=0;" edge="1" parent="1" source="tXvfGp_SNmzIa3DF7fdC-3" target="tXvfGp_SNmzIa3DF7fdC-4">
          <mxGeometry width="50" height="50" relative="1" as="geometry">
            <mxPoint x="760" y="510" as="sourcePoint" />
            <mxPoint x="810" y="460" as="targetPoint" />
          </mxGeometry>
        </mxCell>
      </root>
    </mxGraphModel>
  </diagram>
</mxfile>
